<svg xmlns="http://www.w3.org/2000/svg" viewBox="0 0 81.5 81.5"><defs><style>.cls-1{fill:#2e1a16;}</style></defs><g id="Livello_2" data-name="Livello 2"><g id="Livello_1-2" data-name="Livello 1"><path class="cls-1" d="M40.75,81.5A40.75,40.75,0,1,1,81.5,40.75,40.8,40.8,0,0,1,40.75,81.5Zm0-80A39.25,39.25,0,1,0,80,40.75,39.3,39.3,0,0,0,40.75,1.5Z"/><polygon class="cls-1" points="64.2 40.81 63.87 41.09 63.4 41.5 63.05 41.8 44.46 57.8 43.48 56.66 61.09 41.5 16.4 41.5 16.4 40 60.98 40 43.48 24.83 44.46 23.7 63.05 39.81 63.27 40 63.87 40.52 64.2 40.81"/></g></g></svg>