<svg xmlns="http://www.w3.org/2000/svg" viewBox="0 0 388.83 266.68"><defs><style>.cls-1{fill:#fff;}.cls-1,.cls-2,.cls-3,.cls-4,.cls-5{stroke:#000;stroke-miterlimit:10;stroke-width:2px;}.cls-2{fill:#85b3ff;}.cls-3{fill:#ffc900;}.cls-4{fill:#e01e77;}.cls-5{fill:#f15a24;}</style></defs><g id="Livello_2" data-name="Livello 2"><g id="Livello_1-2" data-name="Livello 1"><rect x="12" y="13" width="376.83" height="253.68" rx="34.2"/><rect class="cls-1" x="1" y="1" width="376.83" height="253.68" rx="34.2"/><rect class="cls-2" x="19.45" y="18" width="343" height="221" rx="19.93"/><circle class="cls-3" cx="213.31" cy="73.1" r="30"/><polygon class="cls-4" points="177.51 180.51 259.04 111.5 333.66 180.51 177.51 180.51"/><polygon class="cls-5" points="44.77 207 152.92 81.01 270.07 207 44.77 207"/><rect class="cls-1" x="172.45" y="177.54" width="141" height="44.46" rx="5.17"/><path d="M199.77,204.4h-6.89L191.54,208H188.1l7.05-17.6h2.37l7,17.6h-3.44Zm-1.06-2.9-2.37-6.42L194,201.5Z"/><path d="M206.87,190.44H210v14.7h7.53V208H206.87Z"/><path d="M221.69,193.34h-5.5v-2.9h14.19v2.9h-5.51V208h-3.18Z"/><path d="M242.42,193.34h-5.5v-2.9h14.19v2.9h-5.5V208h-3.19Z"/><path d="M253.54,190.44h11.72v2.9h-8.57v4.19h8v2.91h-8v4.7h8.57V208H253.54Z"/><path d="M272.88,199.25,267,190.44h3.79l4.24,6.61,4.27-6.61h3.76l-5.86,8.81,5.91,8.79h-3.78L275,201.52,270.78,208H267Z"/><path d="M289.17,193.34h-5.51v-2.9h14.2v2.9h-5.51V208h-3.18Z"/><polygon points="153.37 158.81 159.64 188.54 165.67 182.55 178.36 195.32 189.71 184.04 177.02 171.27 183.05 165.28 153.37 158.81"/></g></g></svg>