<svg xmlns="http://www.w3.org/2000/svg" viewBox="0 0 387.33 265.18"><defs><style>.cls-1{fill:#fff;}.cls-1,.cls-2,.cls-3,.cls-4,.cls-5{stroke:#000;stroke-miterlimit:10;}.cls-2{fill:#85b3ff;}.cls-3{fill:#ffc900;}.cls-4{fill:#e01e77;}.cls-5{fill:#f15a24;}</style></defs><g id="Livello_2" data-name="Livello 2"><g id="Livello_1-2" data-name="Livello 1"><rect x="10.5" y="11.5" width="376.83" height="253.68" rx="34.2"/><rect class="cls-1" x="0.5" y="0.5" width="376.83" height="253.68" rx="34.2"/><rect class="cls-2" x="18.95" y="17.5" width="343" height="221" rx="19.93"/><circle class="cls-3" cx="212.81" cy="72.6" r="30"/><polygon class="cls-4" points="177.01 180.01 258.54 111 333.16 180.01 177.01 180.01"/><polygon class="cls-5" points="44.27 206.5 152.42 80.51 269.57 206.5 44.27 206.5"/><rect class="cls-1" x="171.95" y="177.04" width="141" height="44.46" rx="5.17"/><path d="M199.27,203.9h-6.89L191,207.54H187.6l7.05-17.6H197l7,17.6h-3.44Zm-1.06-2.9-2.37-6.42L193.46,201Z"/><path d="M206.37,189.94h3.15v14.7h7.53v2.9H206.37Z"/><path d="M221.19,192.84h-5.5v-2.9h14.19v2.9h-5.51v14.7h-3.18Z"/><path d="M241.92,192.84h-5.5v-2.9h14.19v2.9h-5.5v14.7h-3.19Z"/><path d="M253,189.94h11.72v2.9h-8.57V197h8v2.91h-8v4.7h8.57v2.9H253Z"/><path d="M272.38,198.75l-5.86-8.81h3.79l4.24,6.61,4.27-6.61h3.76l-5.86,8.81,5.91,8.79h-3.78L274.53,201l-4.25,6.52H266.5Z"/><path d="M288.67,192.84h-5.51v-2.9h14.2v2.9h-5.51v14.7h-3.18Z"/><polygon points="152.87 158.31 159.14 188.04 165.17 182.05 177.86 194.82 189.21 183.54 176.52 170.77 182.55 164.78 152.87 158.31"/></g></g></svg>