<svg xmlns="http://www.w3.org/2000/svg" viewBox="0 0 389.83 266.68"><defs><style>.cls-1{fill:#fff;}.cls-1,.cls-2,.cls-3,.cls-4,.cls-5{stroke:#000;stroke-miterlimit:10;stroke-width:2px;}.cls-2{fill:#85b3ff;}.cls-3{fill:#ffc900;}.cls-4{fill:#e01e77;}.cls-5{fill:#f15a24;}</style></defs><g id="Livello_2" data-name="Livello 2"><g id="Livello_1-2" data-name="Livello 1"><rect y="13" width="376.83" height="253.68" rx="34.2"/><rect class="cls-1" x="12" y="1" width="376.83" height="253.68" rx="34.2"/><rect class="cls-2" x="30.45" y="18" width="343" height="221" rx="19.93"/><circle class="cls-3" cx="224.31" cy="73.1" r="30"/><polygon class="cls-4" points="188.51 180.51 270.04 111.5 344.66 180.51 188.51 180.51"/><polygon class="cls-5" points="55.77 207 163.92 81.01 281.07 207 55.77 207"/><rect class="cls-1" x="183.45" y="177.54" width="141" height="44.46" rx="5.17"/><path d="M210.77,204.4h-6.89L202.54,208H199.1l7.05-17.6h2.37l7,17.6h-3.44Zm-1.06-2.9-2.37-6.42L205,201.5Z"/><path d="M217.87,190.44H221v14.7h7.53V208H217.87Z"/><path d="M232.69,193.34h-5.5v-2.9h14.19v2.9h-5.51V208h-3.18Z"/><path d="M253.42,193.34h-5.5v-2.9h14.19v2.9h-5.5V208h-3.19Z"/><path d="M264.54,190.44h11.72v2.9h-8.57v4.19h8v2.91h-8v4.7h8.57V208H264.54Z"/><path d="M283.88,199.25,278,190.44h3.79l4.24,6.61,4.27-6.61h3.76l-5.86,8.81,5.91,8.79h-3.78L286,201.52,281.78,208H278Z"/><path d="M300.17,193.34h-5.51v-2.9h14.2v2.9h-5.51V208h-3.18Z"/><polygon points="164.37 158.81 170.64 188.54 176.67 182.55 189.36 195.32 200.71 184.04 188.02 171.27 194.05 165.28 164.37 158.81"/></g></g></svg>