<svg xmlns="http://www.w3.org/2000/svg" viewBox="0 0 140.03 154.1"><defs><style>.cls-1{fill:#e6e6e6;}.cls-1,.cls-2,.cls-3,.cls-4{stroke:#000;stroke-miterlimit:10;}.cls-2,.cls-4{fill:#999;}.cls-2,.cls-3{stroke-width:0.25px;}.cls-3{fill:#e4e4e4;}.cls-4{stroke-width:0.5px;}</style></defs><g id="Livello_2" data-name="Livello 2"><g id="Livello_1-2" data-name="Livello 1"><ellipse cx="74.21" cy="77.05" rx="65.82" ry="76.55"/><ellipse class="cls-1" cx="66.32" cy="77.05" rx="65.82" ry="76.55"/><path class="cls-2" d="M66.3,13.14c-29.21,0-52.88,28.62-52.88,63.91S37.09,141,66.3,141s52.92-28.62,52.92-63.91S95.55,13.14,66.3,13.14Zm0,124.68c-27,0-48.91-27.2-48.91-60.77S39.29,16.28,66.3,16.28s48.91,27.21,48.91,60.77S93.31,137.82,66.3,137.82Z"/><ellipse class="cls-3" cx="66.3" cy="77.05" rx="48.91" ry="60.77"/><path class="cls-4" d="M54.2,49.73c3-3.61,6.56-5.57,12.38-5.27C77.88,45,85.67,52.83,85,66.6s-9.9,18.45-18,23.69l-3.62,1.82A29.54,29.54,0,0,0,54,99.43h0c1.24-.06,4.72-.14,10.32.14l4.36.22L69,93.66l14.65.74-1.13,22.54-41.34-6.27,1.12-22.16,16.22-9.44c6.4-4.57,9-7.45,9.25-12.21.22-4.38-1.89-7-6.36-7.22-5.82-.3-4.07-.12-4.31,4.51L57,67.66,42.86,67,44.2,40.4l11.12.67Z"/></g></g></svg>