<svg xmlns="http://www.w3.org/2000/svg" viewBox="0 0 141.03 156.1"><defs><style>.cls-1{fill:#f2a05e;stroke-width:3px;}.cls-1,.cls-2,.cls-4{stroke:#000;stroke-miterlimit:10;}.cls-2,.cls-4{fill:#ad522f;}.cls-2{stroke-width:0.25px;}.cls-3{fill:#e38a4e;}.cls-4{stroke-width:0.5px;}</style></defs><g id="Livello_2" data-name="Livello 2"><g id="Livello_1-2" data-name="Livello 1"><ellipse cx="75.21" cy="78.05" rx="65.82" ry="76.55"/><ellipse class="cls-1" cx="67.32" cy="78.05" rx="65.82" ry="76.55"/><path class="cls-2" d="M67.3,14.14c-29.21,0-52.88,28.62-52.88,63.91S38.09,142,67.3,142s52.92-28.62,52.92-63.91S96.55,14.14,67.3,14.14Zm0,124.68c-27,0-48.91-27.2-48.91-60.77S40.29,17.28,67.3,17.28s48.91,27.21,48.91,60.77S94.31,138.82,67.3,138.82Z"/><ellipse class="cls-3" cx="67.3" cy="78.05" rx="48.91" ry="60.77"/><path class="cls-4" d="M77.05,78.61c6,1,12.22,6.85,11.1,18.45-1.29,13.31-10.91,20.94-26.7,19.41-14.34-1.39-22.85-8.94-24.17-22.89L53.77,90.3c.57,5.47,3.18,8.61,8.37,9.12s8.24-2.24,8.68-6.8c.48-5-2.42-7.61-7.24-8.08L58.15,84l1.38-14.23,4.82.47c5.43.53,8.15-2.5,8.54-6.54.36-3.65-1.65-6.75-7-7.26-5.55-.54-8.77,2.57-9.19,6.88l-.21,2.21L41.48,64.09l2.39-24.65,14.34,1.39L58,45.55l.48.05c1.64-1.82,5.63-5.39,14.07-4.57,12.17,1.18,19.38,9.65,18.25,21.26-1.15,11.87-9.45,15.94-13.69,15.8Z"/></g></g></svg>