<svg xmlns="http://www.w3.org/2000/svg" viewBox="0 0 140.03 154.1"><defs><style>.cls-1{fill:#f2a05e;}.cls-1,.cls-2,.cls-4{stroke:#000;stroke-miterlimit:10;}.cls-2,.cls-4{fill:#ad522f;}.cls-2{stroke-width:0.25px;}.cls-3{fill:#e38a4e;}.cls-4{stroke-width:0.5px;}</style></defs><g id="Livello_2" data-name="Livello 2"><g id="Livello_1-2" data-name="Livello 1"><ellipse cx="74.21" cy="77.05" rx="65.82" ry="76.55"/><ellipse class="cls-1" cx="66.32" cy="77.05" rx="65.82" ry="76.55"/><path class="cls-2" d="M66.3,13.14c-29.21,0-52.88,28.62-52.88,63.91S37.09,141,66.3,141s52.92-28.62,52.92-63.91S95.55,13.14,66.3,13.14Zm0,124.68c-27,0-48.91-27.2-48.91-60.77S39.29,16.28,66.3,16.28s48.91,27.21,48.91,60.77S93.31,137.82,66.3,137.82Z"/><ellipse class="cls-3" cx="66.3" cy="77.05" rx="48.91" ry="60.77"/><path class="cls-4" d="M76.05,77.61c6,1,12.22,6.85,11.1,18.45-1.29,13.31-10.91,20.94-26.7,19.41-14.34-1.39-22.85-8.94-24.17-22.89L52.77,89.3c.57,5.47,3.18,8.61,8.37,9.12s8.24-2.24,8.68-6.8c.48-5-2.42-7.61-7.24-8.08L57.15,83l1.38-14.23,4.82.47c5.43.53,8.15-2.5,8.54-6.54.36-3.65-1.65-6.75-7-7.26-5.55-.54-8.77,2.57-9.19,6.88l-.21,2.21L40.48,63.09l2.39-24.65,14.34,1.39L57,44.55l.48.05c1.64-1.82,5.63-5.39,14.07-4.57,12.17,1.18,19.38,9.65,18.25,21.26-1.15,11.87-9.45,15.94-13.69,15.8Z"/></g></g></svg>