<svg xmlns="http://www.w3.org/2000/svg" viewBox="0 0 62.4 52.71"><g id="Livello_2" data-name="Livello 2"><g id="Livello_1-2" data-name="Livello 1"><path d="M47.15,43.54h.24l.4,0H53.7a1.21,1.21,0,0,0,.27-2.4,3.33,3.33,0,0,0-.57,0H22.64a2.77,2.77,0,0,1-2.46-1.16,2.82,2.82,0,0,1,0-2.74A1.82,1.82,0,0,1,22,36h0q13,0,25.92,0h5.43c1,0,1.34-.23,1.62-1.22l1.94-6.78Q59,20.78,61.08,13.52c.29-1,.6-2.06.92-3.08l.4-1.34V8.35c-.33-.64-.82-.88-1.79-.89q-18.28,0-36.57,0H14A.64.64,0,0,1,13.33,7L12,2.55c-.14-.51-.28-1-.44-1.53a1.22,1.22,0,0,0-1.35-1H1.35C.73,0,.35.27,0,.9v.68a1.72,1.72,0,0,0,1.83.89c1.48-.05,3,0,4.41,0H9a.65.65,0,0,1,.62.45l.06.2c.05.13.08.24.12.36l2,6.83Q15,21.71,18.27,33.13a3.83,3.83,0,0,1-.27,3,5,5,0,0,0,.06,5,5.12,5.12,0,0,0,4.51,2.36h4m18.93-.7c-3,.92-4.58,3-4.19,5.56a5,5,0,0,0,4.91,4.34h0a5,5,0,0,0,4.92-4.4c.34-2.47-1.3-4.63-4.19-5.5m-18.5.73H45.34m-18.53-.76c-3,1-4.64,3.09-4.26,5.58a5,5,0,0,0,9.75.47A4.81,4.81,0,0,0,31.56,45a5.26,5.26,0,0,0-3.23-2.18M48,46a2.39,2.39,0,0,1,.78,1.72,2.51,2.51,0,0,1-.72,1.81,2.51,2.51,0,1,1-1.83-4.26A2.65,2.65,0,0,1,48,46Zm-18,1.8a2.53,2.53,0,0,1-2.51,2.5A2.56,2.56,0,0,1,25,47.7a2.52,2.52,0,0,1,5,.08Zm29.35-37L53,33.11a.65.65,0,0,1-.63.47H21.4a.65.65,0,0,1-.63-.47L14.39,10.77a.69.69,0,0,1,.11-.57A.65.65,0,0,1,15,9.94H58.7a.65.65,0,0,1,.52.26A.66.66,0,0,1,59.33,10.77Z"/></g></g></svg>