<svg xmlns="http://www.w3.org/2000/svg" viewBox="0 0 544.67 544.67"><defs><style>.cls-1{fill:#f5f5f5;}.cls-1,.cls-2,.cls-3,.cls-4{stroke:#000;stroke-miterlimit:10;}.cls-3{fill:#f15a24;}.cls-4{fill:#85b3ff;}</style></defs><g id="Livello_2" data-name="Livello 2"><g id="Livello_1-2" data-name="Livello 1"><path class="cls-1" d="M272.34,272.57l271.8,1.58c0-.59,0-1.22,0-1.81C544.17,122.2,422.48.5,272.34.5"/><path class="cls-2" d="M272.34,272.57v271.6C122.28,544.17.62,422.6.5,272.57Z"/><path class="cls-3" d="M272.34,272.57H.5v-.23C.5,122.2,122.2.5,272.34.5V143.35"/><path class="cls-4" d="M544.14,274.15c-.95,149.31-122.25,270-271.8,270V272.57Z"/><path class="cls-1" d="M272.35,331.06H203.62l-27,73.26H107.48L249.41,49.75h23.91m0,93.6L225.5,272.56h47.82"/><path class="cls-2" d="M273.71,272.56l.2,58.5h68.73l27,73.26h69.18L296.85,49.75H272.94l.22,93.65m-.22-.05,47.82,129.21H272.94"/></g></g></svg>