<svg xmlns="http://www.w3.org/2000/svg" viewBox="0 0 545.68 545.67"><defs><style>.cls-1{fill:#f5f5f5;}.cls-1,.cls-2,.cls-3,.cls-4{stroke:#000;stroke-miterlimit:10;stroke-width:2px;}.cls-3{fill:#f15a24;}.cls-4{fill:#85b3ff;}</style></defs><g id="Livello_2" data-name="Livello 2"><g id="Livello_1-2" data-name="Livello 1"><path class="cls-1" d="M272.84,273.07l271.8,1.58c0-.59,0-1.22,0-1.81C544.68,122.7,423,1,272.84,1"/><path class="cls-2" d="M272.84,273.07v271.6C122.78,544.67,1.12,423.1,1,273.07Z"/><path class="cls-3" d="M272.84,273.07H1v-.23C1,122.7,122.7,1,272.84,1V143.85"/><line class="cls-3" x1="272.84" y1="143.85" x2="272.84" y2="273.07"/><path class="cls-4" d="M544.64,274.65c-.95,149.31-122.25,270-271.8,270V273.07Z"/><path class="cls-1" d="M272.85,331.56H204.12l-27,73.26H108L249.91,50.25h23.91m0,93.6L226,273.06h47.82"/><path class="cls-2" d="M274.21,273.06l.2,58.5h68.73l27,73.26h69.18L297.35,50.25H273.44l.22,93.65m-.22-.05,47.82,129.21H273.44"/></g></g></svg>