<svg xmlns="http://www.w3.org/2000/svg" viewBox="0 0 211.9 221.82"><defs><style>.cls-1{font-size:27px;font-family:HKGrotesk-Bold, HK Grotesk;font-weight:700;}</style></defs><g id="Livello_2" data-name="Livello 2"><g id="Livello_1-2" data-name="Livello 1"><text class="cls-1" transform="translate(45.64 35.92) rotate(-25.19)">C</text><text class="cls-1" transform="translate(62.19 28.01) rotate(-13.87)">H</text><text class="cls-1" transform="matrix(1, -0.06, 0.06, 1, 80.61, 23.54)">E</text><text class="cls-1" transform="translate(96.28 22.42) rotate(6.8)">C</text><text class="cls-1" transform="matrix(0.95, 0.31, -0.31, 0.95, 114.53, 24.52)">K</text><text class="cls-1" transform="translate(131.92 30.53) rotate(25.33)"> </text><text class="cls-1" transform="translate(137.54 32.78) rotate(32.3)">Y</text><text class="cls-1" transform="translate(150.75 40.79) rotate(42.37)">O</text><text class="cls-1" transform="matrix(0.6, 0.8, -0.8, 0.6, 164.98, 53.78)">U</text><text class="cls-1" transform="translate(175.46 67.9) rotate(63.6)">R</text><text class="cls-1" transform="translate(182.45 82.59) rotate(70.4)"> </text><text class="cls-1" transform="translate(184.89 88.09) rotate(77.9)">C</text><text class="cls-1" transform="translate(188.83 105.82) rotate(89.07)">O</text><text class="cls-1" transform="translate(189.2 125.08) rotate(100.48)">N</text><text class="cls-1" transform="translate(185.68 143.5) rotate(110.71)">T</text><text class="cls-1" transform="matrix(-0.5, 0.87, -0.87, -0.5, 180.53, 157.44)">R</text><text class="cls-1" transform="translate(172.6 171.34) rotate(130.04)">A</text><text class="cls-1" transform="translate(161.66 184.29) rotate(139.42)">S</text><text class="cls-1" transform="translate(150.8 193.69) rotate(148.24)">T</text></g></g></svg>