<svg xmlns="http://www.w3.org/2000/svg" viewBox="0 0 368.01 217.91"><defs><style>.cls-1{fill:#ffc900;}.cls-1,.cls-2,.cls-3{stroke:#000;stroke-miterlimit:10;}.cls-2{fill:#85b3ff;}.cls-3{fill:#e01e77;}</style></defs><g id="Livello_2" data-name="Livello 2"><g id="Livello_1-2" data-name="Livello 1"><path d="M155.21,131.79c0-49.71,50.64-35,50.64-70.88,0-20.23-14.41-29.13-35.29-29.13-24.21,0-34.65,12.87-34.65,36.19H103.36c0-42.35,26.39-66.9,66-66.9,36.83,0,68.74,20.87,68.74,60.44,0,55.52-51.54,49.7-51.54,70.58v21.77H155.21Z"/><rect x="149.23" y="177.11" width="40.21" height="39.87" rx="19.93"/><path class="cls-1" d="M147.77,131.22c0-49.7,50.65-35,50.65-70.88,0-20.23-14.42-29.13-35.29-29.13-24.21,0-34.65,12.88-34.65,36.19H95.93c0-42.35,26.39-66.9,66-66.9,36.83,0,68.74,20.87,68.74,60.44,0,55.52-51.55,49.71-51.55,70.58v21.77H147.77Z"/><rect class="cls-1" x="143.79" y="177.55" width="40.21" height="39.87" rx="19.93"/><path d="M56.93,157.35c-14.23-26.09,16.56-32.86,6.29-51.7C57.43,95,47.31,94.49,36.36,100.47c-12.71,6.93-14.5,16.67-7.83,28.91l-17.08,9.31C-.67,116.47,6.15,96,26.92,84.7,46.25,74.16,69,76,80.29,96.75c15.9,29.14-12.82,40.84-6.84,51.79L79.68,160l-16.44,9Z"/><rect x="71.34" y="173.59" width="24.04" height="23.83" rx="11.92" transform="translate(-78.65 62.56) rotate(-28.61)"/><path class="cls-2" d="M52,159.4c-14.23-26.08,16.56-32.86,6.29-51.69-5.79-10.62-15.9-11.17-26.86-5.19-12.7,6.93-14.5,16.67-7.82,28.91L6.49,140.75c-12.12-22.23-5.3-42.67,15.47-54C41.29,76.21,64,78,75.34,98.8c15.89,29.14-12.83,40.84-6.85,51.8L74.72,162l-16.43,9Z"/><rect class="cls-2" x="67.38" y="175.64" width="24.04" height="23.83" rx="11.92" transform="translate(-80.11 60.92) rotate(-28.61)"/><path d="M283.23,145.59c19.73-29.66,44.11-.78,58.35-22.2,8-12.07,3-23.1-9.5-31.38-14.44-9.61-25.78-6.07-35,7.84L277.62,86.93c16.81-25.27,42.3-29.44,65.91-13.74,22,14.61,32.74,39.73,17,63.34-22,33.13-50.48,9.21-58.76,21.66l-8.64,13-18.68-12.42Z"/><rect x="252.28" y="177.12" width="28.57" height="28.81" rx="14.28" transform="translate(-40.53 307.43) rotate(-56.38)"/><path class="cls-3" d="M278.75,141.88c19.72-29.66,44.1-.79,58.34-22.2,8-12.07,3-23.1-9.5-31.39-14.44-9.6-25.78-6.06-35,7.85L273.14,83.22C289.94,58,315.43,53.77,339,69.47c22,14.62,32.74,39.74,17,63.35-22,33.13-50.49,9.2-58.77,21.66l-8.64,13L270,155.05Z"/><rect class="cls-3" x="247.79" y="173.41" width="28.57" height="28.81" rx="14.28" transform="translate(-39.44 302.04) rotate(-56.38)"/></g></g></svg>