<svg xmlns="http://www.w3.org/2000/svg" viewBox="0 0 378.07 226.48"><defs><style>.cls-1{fill:#ffc900;}.cls-1,.cls-2,.cls-3{stroke:#000;stroke-miterlimit:10;stroke-width:2px;}.cls-2{fill:#85b3ff;}.cls-3{fill:#e01e77;}</style></defs><g id="Livello_2" data-name="Livello 2"><g id="Livello_1-2" data-name="Livello 1"><path d="M152.75,140.29c0-49.71,50.64-35,50.64-70.88,0-20.23-14.41-29.13-35.28-29.13-24.22,0-34.65,12.87-34.65,36.19H100.91c0-42.35,26.39-66.9,66-66.9,36.83,0,68.74,20.87,68.74,60.44,0,55.52-51.54,49.7-51.54,70.58v21.77H152.75Z"/><rect x="148.77" y="186.61" width="40.21" height="39.87" rx="19.93"/><path class="cls-1" d="M161.32,131.72c0-49.7,50.64-35,50.64-70.88,0-20.23-14.41-29.13-35.29-29.13C152.46,31.71,142,44.59,142,67.9H109.47c0-42.35,26.39-66.9,66-66.9,36.83,0,68.74,20.87,68.74,60.44,0,55.52-51.54,49.71-51.54,70.58v21.77H161.32Z"/><rect class="cls-1" x="157.34" y="178.05" width="40.21" height="39.87" rx="19.93"/><path d="M51.47,166.85C37.24,140.76,68,134,57.76,115.15,52,104.53,41.86,104,30.9,110c-12.7,6.93-14.5,16.67-7.82,28.91L6,148.19C-6.13,126,.69,105.53,21.46,94.2c19.33-10.54,42.05-8.72,53.38,12C90.73,135.39,62,147.09,68,158l6.23,11.43-16.43,9Z"/><rect x="66.88" y="185.09" width="24.04" height="23.83" rx="11.92" transform="translate(-84.7 61.83) rotate(-28.61)"/><path class="cls-2" d="M53.51,159.9c-14.22-26.08,16.57-32.86,6.3-51.69C54,97.59,43.9,97,33,103c-12.71,6.93-14.5,16.67-7.83,28.91L8,141.25C-4.09,119,2.74,98.58,23.5,87.25c19.33-10.54,42.06-8.72,53.38,12,15.89,29.14-12.82,40.84-6.85,51.8l6.24,11.42-16.44,9Z"/><rect class="cls-2" x="68.92" y="178.14" width="24.04" height="23.83" rx="11.92" transform="translate(-81.12 61.96) rotate(-28.61)"/><path d="M283.78,144.09c19.72-29.66,44.1-.78,58.35-22.2,8-12.07,2.95-23.1-9.5-31.38-14.45-9.61-25.79-6.07-35,7.84L278.17,85.43C295,60.16,320.46,56,344.08,71.69c22,14.61,32.73,39.73,17,63.34-22,33.13-50.48,9.21-58.77,21.66l-8.64,13L275,157.26Z"/><rect x="252.82" y="175.62" width="28.57" height="28.81" rx="14.28" transform="translate(-39.03 307.21) rotate(-56.38)"/><path class="cls-3" d="M292.29,142.38c19.72-29.66,44.11-.79,58.35-22.2,8-12.07,2.95-23.1-9.5-31.39-14.45-9.6-25.79-6.06-35,7.85L286.68,83.72C303.48,58.45,329,54.27,352.59,70c22,14.62,32.73,39.74,17,63.35-22,33.13-50.48,9.2-58.77,21.66l-8.64,13-18.68-12.42Z"/><rect class="cls-3" x="261.33" y="173.91" width="28.57" height="28.81" rx="14.28" transform="translate(-33.81 313.54) rotate(-56.38)"/></g></g></svg>