<svg xmlns="http://www.w3.org/2000/svg" viewBox="0 0 382.51 218.91"><defs><style>.cls-1{fill:#ffc900;}.cls-1,.cls-2,.cls-3{stroke:#000;stroke-miterlimit:10;stroke-width:2px;}.cls-2{fill:#85b3ff;}.cls-3{fill:#e01e77;}</style></defs><g id="Livello_2" data-name="Livello 2"><g id="Livello_1-2" data-name="Livello 1"><path d="M170.71,132.29c0-49.71,50.64-35,50.64-70.88,0-20.23-14.41-29.13-35.29-29.13-24.21,0-34.65,12.87-34.65,36.19H118.86c0-42.35,26.39-66.9,66-66.9,36.83,0,68.74,20.87,68.74,60.44,0,55.52-51.54,49.7-51.54,70.58v21.77H170.71Z"/><rect x="166.73" y="178.61" width="40.21" height="39.87" rx="19.93"/><path class="cls-1" d="M160.27,131.72c0-49.7,50.65-35,50.65-70.88,0-20.23-14.42-29.13-35.29-29.13C151.42,31.71,141,44.59,141,67.9H108.43c0-42.35,26.39-66.9,66-66.9,36.83,0,68.74,20.87,68.74,60.44,0,55.52-51.55,49.71-51.55,70.58v21.77H160.27Z"/><rect class="cls-1" x="156.29" y="178.05" width="40.21" height="39.87" rx="19.93"/><path d="M62.43,155.85C48.2,129.76,79,123,68.72,104.15,62.93,93.53,52.81,93,41.86,99c-12.71,6.93-14.5,16.67-7.83,28.91L17,137.19C4.83,115,11.65,94.53,32.42,83.2c19.33-10.54,42.05-8.72,53.37,12C101.69,124.39,73,136.09,79,147l6.23,11.43-16.44,9Z"/><rect x="77.84" y="174.09" width="24.04" height="23.83" rx="11.92" transform="translate(-78.09 65.73) rotate(-28.61)"/><path class="cls-2" d="M52.47,159.9C38.24,133.82,69,127,58.76,108.21,53,97.59,42.86,97,31.9,103c-12.7,6.93-14.5,16.67-7.82,28.91L7,141.25c-12.12-22.23-5.3-42.67,15.47-54,19.33-10.54,42.05-8.72,53.38,12C91.73,128.44,63,140.14,69,151.1l6.23,11.42-16.43,9Z"/><rect class="cls-2" x="67.88" y="178.14" width="24.04" height="23.83" rx="11.92" transform="translate(-81.25 61.46) rotate(-28.61)"/><path d="M297.73,147.09c19.73-29.66,44.11-.78,58.35-22.2,8-12.07,3-23.1-9.5-31.38-14.44-9.61-25.78-6.07-35,7.84L292.12,88.43C308.93,63.16,334.42,59,358,74.69c22,14.61,32.74,39.73,17,63.34-22,33.13-50.48,9.21-58.76,21.66l-8.64,13L289,160.26Z"/><rect x="266.78" y="178.62" width="28.57" height="28.81" rx="14.28" transform="translate(-35.3 320.17) rotate(-56.38)"/><path class="cls-3" d="M291.25,142.38c19.72-29.66,44.1-.79,58.34-22.2,8-12.07,3-23.1-9.5-31.39-14.44-9.6-25.78-6.06-35,7.85L285.64,83.72c16.8-25.27,42.29-29.45,65.9-13.75,22,14.62,32.74,39.74,17,63.35-22,33.13-50.49,9.2-58.77,21.66l-8.64,13-18.68-12.42Z"/><rect class="cls-3" x="260.29" y="173.91" width="28.57" height="28.81" rx="14.28" transform="translate(-34.28 312.67) rotate(-56.38)"/></g></g></svg>