<svg xmlns="http://www.w3.org/2000/svg" viewBox="0 0 708.26 447.48"><defs><style>.cls-1{fill:#85b3ff;}.cls-1,.cls-2,.cls-3{stroke:#000;stroke-miterlimit:10;stroke-width:2px;}.cls-2{fill:#ffc900;}.cls-3{fill:none;}</style></defs><g id="Livello_2" data-name="Livello 2"><g id="Livello_1-2" data-name="Livello 1"><path class="cls-1" d="M375.47,16.21H69.84A68.83,68.83,0,0,0,1,85.06V377.64a68.83,68.83,0,0,0,68.84,68.84H375.47a68.83,68.83,0,0,0,68.84-68.84V85.06A68.83,68.83,0,0,0,375.47,16.21ZM363.91,127A39.12,39.12,0,1,1,403,87.92,39.13,39.13,0,0,1,363.91,127Z"/><path class="cls-2" d="M337.53,82.85l27.06,100.46a17,17,0,0,0,6.61,9.43L609.8,361.51a16.48,16.48,0,0,0,23-3.61l71.55-101.16a16.48,16.48,0,0,0-4.26-22.89L461.73,65.26a16.79,16.79,0,0,0-11.6-3L343.7,73.8A7.17,7.17,0,0,0,337.53,82.85Zm53.22,9.84a14.79,14.79,0,1,1-20.62,3.53A14.79,14.79,0,0,1,390.75,92.69Z"/><path class="cls-3" d="M396.5,105.31a48.31,48.31,0,0,1-26.95-8.22"/><path class="cls-3" d="M361.16,16.28A48.81,48.81,0,0,1,396.5,1c27.61,0,50,23.35,50,52.15s-22.37,52.16-50,52.16"/><path class="cls-3" d="M350.3,73.09a54.12,54.12,0,0,1-3.78-19.94"/><circle cx="222.66" cy="153.32" r="71.92"/><path d="M96.48,383.46a11.65,11.65,0,0,1-11.71-12.52,138.45,138.45,0,0,1,275.77,0,11.64,11.64,0,0,1-11.71,12.52Z"/><path d="M438.61,170.8l2.08-20.21-2.07-1.5-2.27-1.65L426,161.69l-6.11-4.43,24.89-34.36L456.05,131c8.19,5.93,9,12.21,4.51,18.38-3.57,4.92-8.13,6.44-13.22,4.86L445.75,176ZM445,145c4,2.89,6.94,3.38,9.37,0s1-5.91-3-8.8L446.82,133l-6.36,8.77Z"/><path d="M458.88,166.54l15.89-21.94,6.16,4.46-15.39,21.25c-4.21,5.82-3.84,9.25,1.24,12.93s8.54,2.95,12.72-2.82l15.39-21.25,6.16,4.46-15.71,21.7c-6.47,8.92-14.2,10.16-22.88,3.87S452.52,175.32,458.88,166.54Z"/><path d="M509,169.4l12,8.68c6.86,5,8.54,11.15,4.61,16.57-2.32,3.21-5.56,4.77-9,4.4,2.73,4,2.58,8.26-.53,12.55-4.57,6.31-11.47,7-18.47,2l-13.51-9.78Zm2.09,22.34c3.1,2.25,5.7,2.1,7.56-.47s1.23-5.34-1.77-7.52l-5.82-4.21-5.79,8Zm-9.86,15.79c3.45,2.5,6.88,2.12,9.06-.88s1.33-5.88-2.27-8.49l-6.86-5-6.78,9.36Z"/><path d="M533.81,239.76l2.09-20.22-2.07-1.5-2.27-1.64-10.32,14.25-6.12-4.43L540,191.85,551.26,200c8.18,5.92,9,12.21,4.5,18.37-3.57,4.93-8.12,6.44-13.21,4.86L541,244.93ZM540.15,214c4,2.89,7,3.38,9.38,0s1-5.91-3-8.81L542,202l-6.35,8.78Z"/><path d="M570.67,214.05l6.16,4.47-24.89,34.36-6.17-4.46Z"/><path d="M570.71,240.24c8-11,19.5-13.23,29.66-5.87,7.24,5.25,10.19,12.71,8,21.09L601,253.57c1.58-5.39-.24-9.94-4.92-13.34-6.66-4.82-13.64-3.26-19.22,4.43s-4.89,15,1.72,19.73c4.73,3.43,9.69,3.64,14.31.38l4.2,6.34c-7.28,4.87-15.41,4.47-22.76-.85C564.21,262.9,562.74,251.24,570.71,240.24Z"/><path d="M618,289.9l-13.46-9.75-7.75,5.21-6.71-4.85,38.65-24.41,4.64,3.36-11.19,44.29-6.71-4.85Zm2-7.16,4.43-15.88L610.76,276Z"/></g></g></svg>