<svg xmlns="http://www.w3.org/2000/svg" viewBox="0 0 707.26 446.48"><defs><style>.cls-1{fill:#85b3ff;}.cls-1,.cls-2,.cls-3{stroke:#000;stroke-miterlimit:10;}.cls-2{fill:#ffc900;}.cls-3{fill:none;}</style></defs><g id="Livello_2" data-name="Livello 2"><g id="Livello_1-2" data-name="Livello 1"><path class="cls-1" d="M375,15.71H69.34A68.83,68.83,0,0,0,.5,84.56V377.14A68.83,68.83,0,0,0,69.34,446H375a68.83,68.83,0,0,0,68.84-68.84V84.56A68.83,68.83,0,0,0,375,15.71ZM363.41,126.54a39.12,39.12,0,1,1,39.11-39.12A39.13,39.13,0,0,1,363.41,126.54Z"/><path class="cls-2" d="M337,82.35l27.06,100.46a17,17,0,0,0,6.61,9.43L609.3,361a16.48,16.48,0,0,0,23-3.61l71.55-101.16a16.48,16.48,0,0,0-4.26-22.89L461.23,64.76a16.79,16.79,0,0,0-11.6-3L343.2,73.3A7.17,7.17,0,0,0,337,82.35Zm53.22,9.84a14.79,14.79,0,1,1-20.62,3.53A14.79,14.79,0,0,1,390.25,92.19Z"/><path class="cls-3" d="M396,104.81a48.31,48.31,0,0,1-26.95-8.22"/><path class="cls-3" d="M360.66,15.78A48.81,48.81,0,0,1,396,.5c27.61,0,50,23.35,50,52.15s-22.37,52.16-50,52.16"/><path class="cls-3" d="M349.8,72.59A54.12,54.12,0,0,1,346,52.65"/><circle cx="222.16" cy="152.82" r="71.92"/><path d="M96,383a11.65,11.65,0,0,1-11.71-12.52,138.45,138.45,0,0,1,275.77,0A11.64,11.64,0,0,1,348.33,383Z"/><path d="M438.11,170.3l2.08-20.21-2.07-1.5-2.27-1.65-10.32,14.25-6.11-4.43,24.89-34.36,11.24,8.14c8.19,5.93,9,12.21,4.51,18.38-3.57,4.92-8.13,6.44-13.22,4.86l-1.59,21.69Zm6.34-25.78c4,2.89,6.94,3.38,9.37,0s1-5.91-3-8.8l-4.48-3.25L440,141.27Z"/><path d="M458.38,166l15.89-21.94,6.16,4.46L465,169.81c-4.21,5.82-3.84,9.25,1.24,12.93s8.54,2.95,12.72-2.82l15.39-21.25,6.16,4.46-15.71,21.7c-6.47,8.92-14.2,10.16-22.88,3.87S452,174.82,458.38,166Z"/><path d="M508.52,168.9l12,8.68c6.86,5,8.54,11.15,4.61,16.57-2.32,3.21-5.56,4.77-9,4.4,2.73,4,2.58,8.26-.53,12.55-4.57,6.31-11.47,7-18.47,2l-13.51-9.78Zm2.09,22.34c3.1,2.25,5.7,2.1,7.56-.47s1.23-5.34-1.77-7.52L510.58,179l-5.79,8ZM500.75,207c3.45,2.5,6.88,2.12,9.06-.88s1.33-5.88-2.27-8.49l-6.86-5-6.78,9.36Z"/><path d="M533.31,239.26,535.4,219l-2.07-1.5-2.27-1.64-10.32,14.25-6.12-4.43,24.9-34.37,11.24,8.15c8.18,5.92,9,12.21,4.5,18.37-3.57,4.93-8.12,6.44-13.21,4.86l-1.59,21.7Zm6.34-25.78c4,2.89,7,3.38,9.38,0s1-5.91-3-8.81l-4.49-3.25-6.35,8.78Z"/><path d="M570.17,213.55l6.16,4.47-24.89,34.36-6.17-4.46Z"/><path d="M570.21,239.74c8-11,19.5-13.23,29.66-5.87,7.24,5.25,10.19,12.71,8,21.09l-7.28-1.89c1.58-5.39-.24-9.94-4.92-13.34-6.66-4.82-13.64-3.26-19.22,4.43s-4.89,15,1.72,19.73c4.73,3.43,9.69,3.64,14.31.38l4.2,6.34c-7.28,4.87-15.41,4.47-22.76-.85C563.71,262.4,562.24,250.74,570.21,239.74Z"/><path d="M617.49,289.4,604,279.65l-7.75,5.21L589.57,280l38.65-24.41,4.64,3.36-11.19,44.29L615,298.4Zm2-7.16L624,266.36l-13.7,9.16Z"/></g></g></svg>