<svg xmlns="http://www.w3.org/2000/svg" viewBox="0 0 440 470.77"><defs><style>.cls-1{fill:#f5f5f5;}.cls-1,.cls-2,.cls-3,.cls-4{stroke:#000;stroke-miterlimit:10;stroke-width:2px;}.cls-2{fill:#ffc900;}.cls-3{fill:#85b3ff;}.cls-4{fill:none;}.cls-5{fill:#fff;}</style></defs><g id="Livello_2" data-name="Livello 2"><g id="Livello_1-2" data-name="Livello 1"><path d="M379.53,449.66,407,455l-18.51,15.77L179.71,437.69C78,422.57,0,334.9,0,229,0,112.47,94.47,18,211,18s211,94.47,211,211a210.43,210.43,0,0,1-69.63,156.63Z"/><path class="cls-1" d="M439,212C439,95.47,344.53,1,228,1S17,95.47,17,212c0,105.9,78,193.58,179.72,208.69h0l208.78,33.08-36.12-85.14A210.43,210.43,0,0,0,439,212Z"/><path class="cls-2" d="M227.26,77.07V77c-.45,0-.89,0-1.34,0s-.89,0-1.34,0v.07a89.6,89.6,0,0,0-86.93,89.54,91.37,91.37,0,0,0,1.11,14.07c5.36,33.9,26.69,44.1,35.78,71.52,2.2,6.64,3.6,15.86,4.43,28.11,0,0,0,0,0,0l-.06.3c-1.71,7.6,3.53,15.31,11.3,15.9.34,0,.68,0,1,0h69.4c.34,0,.68,0,1,0,7.77-.59,13-8.3,11.3-15.9l-.06-.3v0c.84-12.25,2.24-21.47,4.44-28.11,9.09-27.42,30.42-37.62,35.78-71.52a91.62,91.62,0,0,0,1.1-14.07A89.59,89.59,0,0,0,227.26,77.07Z"/><path class="cls-3" d="M206,324a20,20,0,1,1,20,20,20,20,0,0,1-20-20"/><rect class="cls-3" x="179.83" y="295.57" width="93.38" height="28.43" rx="7.57"/><path class="cls-4" d="M209.42,295.57c-1.63-4-7.92-73.78-9.41-90.56a1.32,1.32,0,0,1,2.19-1.2l5.37,5.14a1.26,1.26,0,0,0,1.8,0l6.51-6.91a1.25,1.25,0,0,1,1.86,0l6.5,7a1.25,1.25,0,0,0,1.82.05l7.32-7.13a1.26,1.26,0,0,1,1.88.12L240.9,209a1.26,1.26,0,0,0,1.85.14l6.2-5.73a1.33,1.33,0,0,1,2.17,1.25l-9.53,91"/><path class="cls-5" d="M284.12,167.33c-.35,2.1-.81,4.28-1.39,6.52a4.12,4.12,0,0,0,2.37,4.87,4,4,0,0,0,5.34-2.71q1-3.8,1.56-7.33a4,4,0,0,0-3.12-4.55l-.08,0A3.93,3.93,0,0,0,284.12,167.33Z"/><path class="cls-5" d="M287.67,153.66a4,4,0,0,0,4.85-4.31,54.49,54.49,0,0,0-13.06-29.24A61.27,61.27,0,0,0,258,104.24a4,4,0,0,0-3,7.43c1.34.54,26,10.85,29.51,38.62a4,4,0,0,0,3,3.35Z"/></g></g></svg>