<svg xmlns="http://www.w3.org/2000/svg" viewBox="0 0 219.82 255.14"><defs><style>.cls-1{fill:#ffc900;}.cls-1,.cls-2{stroke:#000;stroke-miterlimit:10;stroke-width:2px;}.cls-2{fill:#85b3ff;}</style></defs><g id="Livello_2" data-name="Livello 2"><g id="Livello_1-2" data-name="Livello 1"><path d="M213.14,242,137,142.14l0,0a78.92,78.92,0,1,0-12.16,10.77l75.31,99a8.2,8.2,0,1,0,13-9.94Z"/><path class="cls-1" d="M128.78,143.94l75.31,99a8.2,8.2,0,0,0,11.45,1.6h0a8.21,8.21,0,0,0,1.6-11.54L141,133.14"/><circle class="cls-1" cx="82.85" cy="79.85" r="78.85"/><circle class="cls-2" cx="82.85" cy="79.85" r="63.08"/><path d="M74.29,122.73a5.69,5.69,0,0,1-4.21-1.48,6.24,6.24,0,0,1-1.48-4.58,27.15,27.15,0,0,1,1-5.88q1-4,2.47-9.22l3-10.4c1-3.46,1.81-6.59,2.48-9.4a30.4,30.4,0,0,0,1-6.31,27.85,27.85,0,0,0-5.08,3.78,35,35,0,0,0-5,5.87L65.26,80.9a55.94,55.94,0,0,1,6.49-7.05A34.46,34.46,0,0,1,78.5,69a13.26,13.26,0,0,1,6.19-1.79,5.44,5.44,0,0,1,4.2,1.61,6.48,6.48,0,0,1,1.49,4.57,29.41,29.41,0,0,1-1,6q-1,4.16-2.41,9.29T84,99c-1,3.47-1.88,6.61-2.54,9.41a29.65,29.65,0,0,0-1,6.18,24.24,24.24,0,0,0,5.13-3.77,52.67,52.67,0,0,0,4.89-5.38l3.22,3.71a56.76,56.76,0,0,1-6.49,7A32,32,0,0,1,80.48,121,13.64,13.64,0,0,1,74.29,122.73Zm14-68.19a6.7,6.7,0,0,1-5-1.92,6.41,6.41,0,0,1-1.93-4.76,9.2,9.2,0,0,1,4.58-8.17,8.91,8.91,0,0,1,4.58-1.23A6.27,6.27,0,0,1,97.19,45,10.46,10.46,0,0,1,96,50a8.21,8.21,0,0,1-3.22,3.4A8.84,8.84,0,0,1,88.27,54.54Z"/></g></g></svg>