<svg xmlns="http://www.w3.org/2000/svg" viewBox="0 0 224.32 248.64"><defs><style>.cls-1{fill:#ffc900;}.cls-1,.cls-2{stroke:#000;stroke-miterlimit:10;}.cls-2{fill:#85b3ff;}</style></defs><g id="Livello_2" data-name="Livello 2"><g id="Livello_1-2" data-name="Livello 1"><path d="M222.64,232l-76.16-99.82,0,0a78.92,78.92,0,1,0-12.16,10.77l75.31,99a8.2,8.2,0,1,0,13-9.94Z"/><path class="cls-1" d="M125.28,145.94l75.31,99A8.2,8.2,0,0,0,212,246.5h0a8.21,8.21,0,0,0,1.6-11.54l-76.16-99.82"/><circle class="cls-1" cx="79.35" cy="81.85" r="78.85"/><circle class="cls-2" cx="79.35" cy="81.85" r="63.08"/><path d="M70.79,124.73a5.69,5.69,0,0,1-4.21-1.48,6.24,6.24,0,0,1-1.48-4.58,27.15,27.15,0,0,1,1-5.88q1-4,2.47-9.22l3-10.4c1-3.46,1.81-6.59,2.48-9.4a30.4,30.4,0,0,0,1-6.31,27.85,27.85,0,0,0-5.08,3.78,35,35,0,0,0-5,5.87L61.76,82.9a55.94,55.94,0,0,1,6.49-7.05A34.46,34.46,0,0,1,75,71a13.26,13.26,0,0,1,6.19-1.79,5.44,5.44,0,0,1,4.2,1.61,6.48,6.48,0,0,1,1.49,4.57,29.41,29.41,0,0,1-1,6q-1,4.16-2.41,9.29t-3,10.33c-1,3.47-1.88,6.61-2.54,9.41a29.65,29.65,0,0,0-1,6.18,24.24,24.24,0,0,0,5.13-3.77A52.67,52.67,0,0,0,87,107.41l3.22,3.71a56.76,56.76,0,0,1-6.49,7A32,32,0,0,1,77,123,13.64,13.64,0,0,1,70.79,124.73Zm14-68.19a6.7,6.7,0,0,1-5-1.92,6.41,6.41,0,0,1-1.93-4.76A9.44,9.44,0,0,1,79.08,45a9.3,9.3,0,0,1,3.34-3.34A8.91,8.91,0,0,1,87,40.46,6.27,6.27,0,0,1,93.69,47a10.46,10.46,0,0,1-1.18,5,8.21,8.21,0,0,1-3.22,3.4A8.84,8.84,0,0,1,84.77,56.54Z"/></g></g></svg>