<svg xmlns="http://www.w3.org/2000/svg" viewBox="0 0 299.65 102.51"><defs><style>.cls-1{fill:#fff;}</style></defs><g id="Livello_2" data-name="Livello 2"><g id="Livello_1-2" data-name="Livello 1"><rect class="cls-1" x="0.25" y="35.74" width="299.15" height="66.53" rx="2.92"/><path d="M296.48,36a2.68,2.68,0,0,1,2.67,2.67V99.34a2.67,2.67,0,0,1-2.67,2.67H3.17A2.67,2.67,0,0,1,.5,99.34V38.66A2.68,2.68,0,0,1,3.17,36H296.48m0-.5H3.17A3.17,3.17,0,0,0,0,38.66V99.34a3.17,3.17,0,0,0,3.17,3.17H296.48a3.17,3.17,0,0,0,3.17-3.17V38.66a3.17,3.17,0,0,0-3.17-3.17Z"/><rect x="88.46" y="53.94" width="0.5" height="27.87"/><path d="M20,59.22h3.45V78.46H20Z"/><path d="M40,69.69v8.77H36.69V70.51c0-.93,0-3-2.51-3-3.09,0-3.09,3.12-3.09,5.55v5.43H27.77V64.86h3.32v1.57a4.87,4.87,0,0,1,4.11-1.85C38.26,64.58,40,66.46,40,69.69Z"/><path d="M56.56,71.67c0,4.45-2.4,7.07-5.74,7.07a5.18,5.18,0,0,1-3.92-1.66v7H43.59V64.86H46.9v1.35a5,5,0,0,1,3.92-1.63C54.52,64.58,56.56,67.59,56.56,71.67Zm-3.31,0c0-2.68-1-4.17-3.23-4.17-2.4,0-3.42,1.74-3.42,4.17s1,4.19,3.39,4.19C52.2,75.84,53.25,74.3,53.25,71.65Z"/><path d="M71.22,64.86v13.6H67.9V76.89a4.83,4.83,0,0,1-4.05,1.85c-3.43,0-4.86-2.48-4.86-5.38v-8.5H62.3v7.67c0,.94,0,3.31,2.51,3.31,3.09,0,3.09-3.39,3.09-5.82V64.86Z"/><path d="M78.94,67.48v6.93c0,1.07.66,1.57,1.74,1.57a5.85,5.85,0,0,0,1.66-.3v2.65a8,8,0,0,1-2.49.41c-2.29,0-4.22-1.19-4.22-4.09V67.48H73.42V64.86h2.21V62.23l3.31-2.45v5.08h3.4v2.62Z"/><path d="M17.9,15.26H10.36l-1.46,4H5.14L12.84,0h2.6l7.67,19.24H19.36Zm-1.16-3.17-2.6-7-2.59,7Z"/><path d="M25,16V0h3.32V15.76c0,.61.36.86,1,.86a3.88,3.88,0,0,0,1.05-.17V19.1a6.18,6.18,0,0,1-2.12.42C26.37,19.52,25,18.41,25,16Z"/><path d="M36.69,8.25v6.93c0,1.08.66,1.57,1.74,1.57a5.85,5.85,0,0,0,1.66-.3V19.1a7.75,7.75,0,0,1-2.49.42c-2.29,0-4.22-1.19-4.22-4.09V8.25H31.17V5.63h2.21V3L36.69.55V5.63h3.4V8.25Z"/><path d="M52.37,6.13l-1.6,2.92a3,3,0,0,0-1.66-.47c-2,0-3,1.25-3,3.81v6.85H42.79V5.63h3.34V8a3.82,3.82,0,0,1,3.64-2.6A4.71,4.71,0,0,1,52.37,6.13Z"/><path d="M52.15,12.42c0-3.86,2.59-7.07,6.81-7.07s6.82,3.21,6.82,7.07-2.62,7.1-6.82,7.1S52.15,16.26,52.15,12.42Zm10.32,0c0-2.23-1-4.17-3.51-4.17s-3.5,1.94-3.5,4.17,1,4.2,3.5,4.2S62.47,14.63,62.47,12.42Z"/><path d="M69,6.24h3.61V9.85H69Zm0,9.41h3.61v3.59H69Z"/></g></g></svg>