<svg xmlns="http://www.w3.org/2000/svg" viewBox="0 0 430.48 90.98"><defs><style>.cls-1{fill:#fff;}.cls-2{stroke:#fff;stroke-miterlimit:10;stroke-width:0.25px;}</style></defs><g id="Livello_2" data-name="Livello 2"><g id="Livello_1-2" data-name="Livello 1"><path class="cls-1" d="M130.89,33.32V52.89c0,3,1.55,4.37,4.17,4.37a13.53,13.53,0,0,0,4-.74v4.91a17,17,0,0,1-5.38.94c-4.78,0-8.54-2.62-8.54-8.87V33.32h-5.45v-4.7h5.45V20.75l5.78-4.3V28.62H139v4.7Z"/><path class="cls-1" d="M172.87,41.06V61.77h-5.31l-.41-5c-2.35,3.57-6.32,5.58-11.29,5.58-7.13,0-11.64-4-11.64-10.42,0-3.5,1.48-6.19,4.17-7.66,2.49-1.35,5.79-1.89,11.36-1.89h7.34V41.06c0-5.11-2.83-7.94-7.87-7.94-3.9,0-7.06,1.82-9.68,5.31l-4.17-3.49a16.75,16.75,0,0,1,14-6.93C167.83,28,172.87,32.85,172.87,41.06Zm-5.78,6.18v-.33h-6.66c-5,0-7.33.4-8.74,1.48A4.67,4.67,0,0,0,150,52.22c0,3.23,2.75,5.31,7.19,5.31C163.05,57.53,167.09,53.36,167.09,47.24Z"/><path class="cls-1" d="M179.68,53.5l4.77-2.15a8.81,8.81,0,0,0,8.74,6c4.31,0,6.73-2.22,6.73-5.11,0-7.74-18.43-2.83-18.43-14.8,0-6,5.12-9.48,11.64-9.48,5.45,0,9.81,2.42,12.17,7.06l-4.57,2.49A8.29,8.29,0,0,0,193,32.92c-3.63,0-5.91,1.55-5.91,4,0,6.92,18.55,2.62,18.55,15.06,0,7.06-5.91,10.42-12.23,10.42C186.74,62.37,181.43,58.67,179.68,53.5Z"/><path class="cls-1" d="M221.12,33.32V52.89c0,3,1.54,4.37,4.16,4.37a13.53,13.53,0,0,0,4-.74v4.91a16.94,16.94,0,0,1-5.38.94c-4.77,0-8.54-2.62-8.54-8.87V33.32h-5.44v-4.7h5.44V20.75l5.79-4.3V28.62h8.13v4.7Z"/><path class="cls-1" d="M234.31,45.16c0-9.68,6.32-17.15,16.07-17.15s16.21,7.47,16.21,17.15-6.46,17.21-16.21,17.21S234.31,54.84,234.31,45.16Zm26.49,0c0-6.86-3.63-12-10.42-12s-10.29,5.25-10.29,12,3.56,12.1,10.29,12.1S260.8,51.88,260.8,45.16Z"/><path class="cls-1" d="M302.45,47.85H279.72c.34,4.37,3,7.26,8.27,7.26a10,10,0,0,0,7.94-3.56l5.58,4.91a17.25,17.25,0,0,1-13.59,6c-11.43,0-16.27-8.2-16.27-17.08,0-8.67,4.71-17.42,15.74-17.42,10.28,0,15.26,7.6,15.26,16.82A23.77,23.77,0,0,1,302.45,47.85Zm-7.53-6.39c-.14-4.24-3.37-6.79-7.6-6.79-4.91,0-7.19,3.5-7.66,6.79Z"/><path class="cls-1" d="M339.11,40.38V61.77h-8.06V42.4c0-2.28,0-7.4-6.12-7.4-7.54,0-7.54,7.6-7.54,13.52V61.77h-8.06V28.62h8.06v3.83c2.36-3.16,6-4.51,10-4.51C334.88,27.94,339.11,32.52,339.11,40.38Z"/><path class="cls-1" d="M357.23,35V51.88c0,2.63,1.61,3.84,4.23,3.84a14,14,0,0,0,4-.74v6.45a19.16,19.16,0,0,1-6.06,1c-5.58,0-10.29-2.89-10.29-9.95V35h-5.37V28.62h5.37V22.23l8.08-6V28.62h8.27V35Z"/><path class="cls-1" d="M400.27,47.85H377.54c.34,4.37,3,7.26,8.27,7.26a10,10,0,0,0,7.94-3.56l5.58,4.91a17.24,17.24,0,0,1-13.58,6c-11.44,0-16.28-8.2-16.28-17.08,0-8.67,4.71-17.42,15.74-17.42,10.29,0,15.27,7.6,15.27,16.82A23.83,23.83,0,0,1,400.27,47.85Zm-7.53-6.39c-.13-4.24-3.36-6.79-7.6-6.79-4.91,0-7.19,3.5-7.66,6.79Z"/><path class="cls-1" d="M430.48,29.83,426.58,37a7.1,7.1,0,0,0-4-1.14c-4.91,0-7.33,3-7.33,9.28V61.77h-8.07V28.62h8.14v5.65a9.28,9.28,0,0,1,8.87-6.33A11.28,11.28,0,0,1,430.48,29.83Z"/><path class="cls-1" d="M98.69,65.64,80.28,43l13.17-5.48a5.2,5.2,0,0,0,.74-.4l.19-.14a4.3,4.3,0,0,0,.47-.41l.13-.14a3.51,3.51,0,0,0,.45-.63,3.24,3.24,0,0,0,.31-.8l2.33-9.46-.47-.14.47.11a3.74,3.74,0,0,0-.83-3.26L81,2.14A6.19,6.19,0,0,0,74.11.41L59.93,6.32a3.7,3.7,0,0,0-2.28,2.52h0l-1.17,4.75-.75-.92a6.19,6.19,0,0,0-6.87-1.73L4.72,29.32a3.69,3.69,0,0,0-2.27,2.52h0L.1,41.34a3.73,3.73,0,0,0,.83,3.25L16.64,64a5.76,5.76,0,0,0,.6.61l.2.17c.16.12.33.24.55.38l.19.12a6.86,6.86,0,0,0,.76.37l.19.07a6,6,0,0,0,.91.25,1.11,1.11,0,0,0,.38.07,5.09,5.09,0,0,0,.91.07l.19,0h.08a5.76,5.76,0,0,0,.7-.08l.26,0a5.08,5.08,0,0,0,.94-.28l15-6.24A2.75,2.75,0,0,1,39,59.3a2.62,2.62,0,0,1,.38,0c.15,0,.32,0,.64.06.16,0,.32.08.55.16a3.14,3.14,0,0,1,.64.37,2.19,2.19,0,0,1,.41.37l23.21,28.6a4.4,4.4,0,0,0,.6.62l.21.16a4.19,4.19,0,0,0,.51.37l.22.13c.19.11.39.21.74.37l.21.07a5.71,5.71,0,0,0,.93.27l.35.06a2.52,2.52,0,0,0,.93.07h.25c.22,0,.43,0,.71-.08l.26,0a6,6,0,0,0,.94-.28L94.88,80.9a4,4,0,0,0,.74-.4l.2-.14a4.19,4.19,0,0,0,.45-.39l.16-.16a3.91,3.91,0,0,0,.45-.63,3.69,3.69,0,0,0,.31-.8l2.33-9.5h0A3.67,3.67,0,0,0,98.69,65.64ZM3.9,34.37Zm.51-2Zm39.12,16h0Zm.81.37h0l.08,0h0Zm53.5-22.65L97,25.81v0ZM20.34,65Zm1.11.1ZM70.56,89.93Z"/><path class="cls-2" d="M75.08,2a3.89,3.89,0,0,1,4.26,1.08L95.61,23.16a1.94,1.94,0,0,1-.81,3.18L80.63,32.25a3.9,3.9,0,0,1-4.26-1.07L60.1,11.12a1.93,1.93,0,0,1,.8-3.18Z"/><path class="cls-2" d="M49.81,12.56a3.88,3.88,0,0,1,4.26,1.08l43,53a1.93,1.93,0,0,1-.81,3.17L73.08,79.44a3.9,3.9,0,0,1-4.26-1.07L45.61,49.76a5.28,5.28,0,0,0-5.77-1.44l-15,6.24A3.89,3.89,0,0,1,20.6,53.5L4.89,34.13a1.94,1.94,0,0,1,.8-3.19Z"/></g></g></svg>