<svg xmlns="http://www.w3.org/2000/svg" viewBox="0 0 69.24 63.23"><defs><style>.cls-1{fill:#fff;}</style></defs><g id="Livello_2" data-name="Livello 2"><g id="Livello_1-2" data-name="Livello 1"><path class="cls-1" d="M68.6,45.62,55.8,29.85,65,26a3.66,3.66,0,0,0,.52-.28l.13-.1a2.07,2.07,0,0,0,.32-.28l.1-.1a2.37,2.37,0,0,0,.31-.44,1.84,1.84,0,0,0,.21-.55l1.62-6.58-.32-.1.33.08a2.67,2.67,0,0,0-.58-2.27L56.28,1.48A4.31,4.31,0,0,0,51.51.28L41.66,4.39a2.56,2.56,0,0,0-1.59,1.75h0l-.81,3.3-.53-.64A4.29,4.29,0,0,0,34,7.6L3.28,20.38A2.55,2.55,0,0,0,1.7,22.13h0L.07,28.73A2.58,2.58,0,0,0,.65,31L11.57,44.45a2.78,2.78,0,0,0,.41.43l.14.11c.11.09.23.17.38.27l.13.08a5.29,5.29,0,0,0,.53.26l.14,0a4.25,4.25,0,0,0,.63.17,1,1,0,0,0,.26,0,3,3,0,0,0,.64.05H15l.48-.06.18,0a4.47,4.47,0,0,0,.65-.2l10.41-4.34a1.73,1.73,0,0,1,.39-.1l.26,0a4,4,0,0,1,.45.05,2.11,2.11,0,0,1,.38.11,1.75,1.75,0,0,1,.44.25,1.54,1.54,0,0,1,.29.26L45.08,61.74a3.42,3.42,0,0,0,.42.43l.14.11c.11.09.23.17.36.26l.15.09a3.2,3.2,0,0,0,.52.25l.15.06a3.83,3.83,0,0,0,.64.18l.25,0a1.57,1.57,0,0,0,.64.05h.17l.5-.06.18,0a3.75,3.75,0,0,0,.65-.2L66,56.23a2.48,2.48,0,0,0,.51-.28l.14-.1a2.69,2.69,0,0,0,.32-.27l.1-.11a2,2,0,0,0,.32-.44,2.49,2.49,0,0,0,.21-.56l1.62-6.6a2.22,2.22,0,0,0,.07-.57A2.68,2.68,0,0,0,68.6,45.62ZM67.44,17.91l.57.2-.57-.18ZM42.33,5.51l9.85-4.1a2.7,2.7,0,0,1,3,.74L66.46,16.09a1.34,1.34,0,0,1-.56,2.21L56,22.41a2.72,2.72,0,0,1-3-.74L41.77,7.73A1.35,1.35,0,0,1,42.33,5.51Zm24.57,43L50.79,55.21a2.69,2.69,0,0,1-2.95-.74L31.7,34.58a3.66,3.66,0,0,0-4-1L17.28,37.92a2.72,2.72,0,0,1-3-.74L3.4,23.72A1.35,1.35,0,0,1,4,21.5L34.62,8.72a2.71,2.71,0,0,1,3,.75L67.46,46.29A1.34,1.34,0,0,1,66.9,48.5Z"/></g></g></svg>