<svg xmlns="http://www.w3.org/2000/svg" viewBox="0 0 117.12 106.96"><defs><style>.cls-1{fill:#fff;}.cls-2{stroke:#fff;stroke-miterlimit:10;stroke-width:0.25px;}</style></defs><g id="Livello_2" data-name="Livello 2"><g id="Livello_1-2" data-name="Livello 1"><path class="cls-1" d="M116,77.17,94.39,50.5l15.47-6.45a5.65,5.65,0,0,0,.88-.47l.22-.16a6.09,6.09,0,0,0,.55-.48l.16-.17a4.25,4.25,0,0,0,.53-.74,4,4,0,0,0,.36-.94L115.29,30l-.54-.17.55.14a4.41,4.41,0,0,0-1-3.84L95.19,2.52a7.28,7.28,0,0,0-8.07-2l-16.66,7a4.33,4.33,0,0,0-2.68,3h0L66.38,16l-.88-1.09a7.29,7.29,0,0,0-8.08-2L5.55,34.48a4.32,4.32,0,0,0-2.67,3h0L.11,48.6a4.43,4.43,0,0,0,1,3.83L19.57,75.2a6.79,6.79,0,0,0,.7.72l.24.19a6.34,6.34,0,0,0,.64.45l.22.14c.23.13.46.24.9.44l.22.07a7.37,7.37,0,0,0,1.07.31,1.79,1.79,0,0,0,.45.08,5.94,5.94,0,0,0,1.07.08l.22,0h.1c.23,0,.46,0,.82-.09l.31,0a5.09,5.09,0,0,0,1.09-.33l17.61-7.34a2.61,2.61,0,0,1,.65-.16,2.31,2.31,0,0,1,.45,0c.18,0,.38,0,.75.08a5.6,5.6,0,0,1,.65.18,3.51,3.51,0,0,1,.75.43,2.77,2.77,0,0,1,.49.44l27.29,33.63a6,6,0,0,0,.7.72l.24.2c.19.15.38.28.6.43l.26.15a8.81,8.81,0,0,0,.87.43l.26.09a6.82,6.82,0,0,0,1.08.31l.42.08a3.18,3.18,0,0,0,1.09.08h.3c.26,0,.51,0,.83-.09l.31,0a6.55,6.55,0,0,0,1.09-.33l27.24-11.35a6.5,6.5,0,0,0,.87-.47l.23-.17a4.69,4.69,0,0,0,.54-.46l.18-.19a4.67,4.67,0,0,0,.53-.74,4,4,0,0,0,.36-.94L117,81h0A4.31,4.31,0,0,0,116,77.17ZM4.59,40.41ZM5.18,38Zm46,18.84h0Zm1,.43h0l.09,0h0ZM115,30.64l-1-.3v0ZM23.91,76.47Zm1.31.12ZM83,105.72Z"/><path class="cls-2" d="M88.27,2.39a4.57,4.57,0,0,1,5,1.26l19.13,23.58a2.28,2.28,0,0,1-1,3.74L94.79,37.91a4.57,4.57,0,0,1-5-1.25L70.66,13.08a2.28,2.28,0,0,1,.94-3.75Z"/><path class="cls-2" d="M58.56,14.77a4.57,4.57,0,0,1,5,1.26l50.54,62.28a2.27,2.27,0,0,1-1,3.73L85.92,93.39a4.54,4.54,0,0,1-5-1.25L53.62,58.51a6.19,6.19,0,0,0-6.79-1.7l-17.6,7.34a4.59,4.59,0,0,1-5-1.26L5.75,40.13a2.28,2.28,0,0,1,.94-3.75Z"/></g></g></svg>