<svg xmlns="http://www.w3.org/2000/svg" viewBox="0 0 69.24 63.24"><defs><style>.cls-1{fill:#fff;}.cls-2{fill:#1d1d1b;}</style></defs><g id="Livello_2" data-name="Livello 2"><g id="Livello_1-2" data-name="Livello 1"><path class="cls-1" d="M68.6,45.62,55.8,29.85,65,26a2.87,2.87,0,0,0,.52-.28l.13-.09c.12-.09.22-.18.33-.28l.09-.1a2.37,2.37,0,0,0,.31-.44,2.25,2.25,0,0,0,.22-.56l1.61-6.57-.32-.1.33.08a2.59,2.59,0,0,0-.58-2.27L56.28,1.49A4.28,4.28,0,0,0,51.51.29l-9.85,4.1a2.58,2.58,0,0,0-1.59,1.76h0l-.81,3.3-.53-.65A4.31,4.31,0,0,0,34,7.6L3.28,20.38A2.59,2.59,0,0,0,1.7,22.13h0L.07,28.73A2.6,2.6,0,0,0,.65,31L11.57,44.46a3.25,3.25,0,0,0,.41.42l.15.12a3,3,0,0,0,.37.26l.14.09.52.26.14,0a4.34,4.34,0,0,0,.63.18,1,1,0,0,0,.26.05,5.27,5.27,0,0,0,.64,0H15a3.55,3.55,0,0,0,.48,0l.18,0a3.5,3.5,0,0,0,.65-.2l10.41-4.33a1.31,1.31,0,0,1,.39-.1l.26,0,.45,0a3.46,3.46,0,0,1,.38.11,2.15,2.15,0,0,1,.44.25,2,2,0,0,1,.29.26L45.08,61.75a4.16,4.16,0,0,0,.42.42l.14.12a3.27,3.27,0,0,0,.36.25l.15.09a4.94,4.94,0,0,0,.52.26l.15,0a3.83,3.83,0,0,0,.64.18l.25.05a1.77,1.77,0,0,0,.64,0h.18a3.13,3.13,0,0,0,.49,0l.18,0a3.75,3.75,0,0,0,.65-.2L66,56.23a3.63,3.63,0,0,0,.52-.27l.13-.1a2.69,2.69,0,0,0,.32-.27l.11-.12a2.7,2.7,0,0,0,.31-.43,2.92,2.92,0,0,0,.21-.56l1.63-6.6h0A2.56,2.56,0,0,0,68.6,45.62ZM2.71,23.89Zm.35-1.43ZM30.26,33.6Zm.56.26h0l.05,0h0ZM68,18.11l-.57-.17v0ZM14.14,45.21Zm.77.07ZM49.05,62.51Z"/><path class="cls-2" d="M52.19,1.41a2.71,2.71,0,0,1,3,.75L66.46,16.1a1.35,1.35,0,0,1-.56,2.21L56,22.41a2.67,2.67,0,0,1-2.95-.74L41.77,7.73a1.34,1.34,0,0,1,.56-2.21Z"/><path class="cls-2" d="M34.62,8.73a2.71,2.71,0,0,1,3,.75L67.46,46.3a1.35,1.35,0,0,1-.56,2.21L50.8,55.22a2.71,2.71,0,0,1-3-.75L31.7,34.59a3.66,3.66,0,0,0-4-1L17.28,37.93a2.71,2.71,0,0,1-3-.75L3.4,23.72A1.34,1.34,0,0,1,4,21.51Z"/></g></g></svg>