<svg xmlns="http://www.w3.org/2000/svg" viewBox="0 0 102.59 93.88"><defs><style>.cls-1{fill:#fff;}.cls-2{fill:none;}.cls-3{fill:#85b3ff;}.cls-4{fill:#f15a24;}</style></defs><g id="Livello_2" data-name="Livello 2"><g id="Livello_1-2" data-name="Livello 1"><path class="cls-1" d="M98.9,27.06v0l.82.26Z"/><path class="cls-2" d="M98.9,27.06v0l.82.26Zm0,0v0l.82.26Zm0,0v0l.82.26Zm0,0v0l.82.26Zm0,0v0l.82.26Z"/><path class="cls-1" d="M101.42,66.57,83.77,44.83l11.94-5a9.51,9.51,0,0,0,.91-.47l0,0,0-.05.19-.14a3.45,3.45,0,0,0,.6-.54l.13-.13,0,0a3.85,3.85,0,0,0,.58-.84,3.13,3.13,0,0,0,.41-1.09l2.09-8.48h0L101,27c0-.08,0-.16,0-.23l.07-.77A5.17,5.17,0,0,0,100,22.77L83.55,2.55A7.34,7.34,0,0,0,77.94,0a6.68,6.68,0,0,0-2.57.49l-14.28,6A4.9,4.9,0,0,0,58.43,8.9h-.08l-.22.83-.67,2.76a7.48,7.48,0,0,0-5-1.89,6.67,6.67,0,0,0-2.58.51L5.43,29.64a5.08,5.08,0,0,0-2.19,1.69A16.36,16.36,0,0,0,2.06,34.6L.13,42.49a4.83,4.83,0,0,0,1.06,4.24L17,66.23a4.2,4.2,0,0,0,.72.77l.25.19a6.61,6.61,0,0,0,.61.44l.23.14a9.39,9.39,0,0,0,.9.45l0,0h0l.21.07a9.06,9.06,0,0,0,1,.28,3.5,3.5,0,0,0,.52.09,5.59,5.59,0,0,0,.91.08h.13l.12,0H23l.75-.1.24,0,.11,0a6.64,6.64,0,0,0,1.1-.33L40.29,62l.35-.07s.06,0,.14,0h.08l.42.06.36.1a2,2,0,0,1,.39.23,1.26,1.26,0,0,1,.23.21l23.37,28.8a4.86,4.86,0,0,0,.74.77l.24.19c.13.11.31.23.48.36l.09.06.27.16a5.65,5.65,0,0,0,.92.45l.22.08a7.29,7.29,0,0,0,1.13.32l.39.06.11,0a4,4,0,0,0,.74.09,2.91,2.91,0,0,0,.32,0h.25a5.24,5.24,0,0,0,.81-.1h.22l.06,0h.07a9.18,9.18,0,0,0,1.13-.35l23.34-9.73a4.47,4.47,0,0,0,1-.54l.21-.13a6,6,0,0,0,.59-.51l.18-.2a3.25,3.25,0,0,0,.62-.86,4.49,4.49,0,0,0,.4-1.05l2.35-9.58a4.1,4.1,0,0,0,.13-1.08A4.93,4.93,0,0,0,101.42,66.57ZM62.48,9.08,76.77,3.13a3.44,3.44,0,0,1,1.31-.26,3.89,3.89,0,0,1,3,1.34L97.48,24.42a2,2,0,0,1-.82,3.21l-14.3,6a3.34,3.34,0,0,1-1.3.25,3.92,3.92,0,0,1-3-1.32L61.67,12.3A2,2,0,0,1,62.48,9.08ZM98.11,71.43,74.75,81.16a3.42,3.42,0,0,1-1.31.24,3.85,3.85,0,0,1-3-1.32L47.06,51.24a5.3,5.3,0,0,0-4-1.79,4.62,4.62,0,0,0-1.78.34l-15.1,6.29a3.24,3.24,0,0,1-1.3.25,3.91,3.91,0,0,1-3-1.32L6,35.49a2,2,0,0,1,.81-3.22L51.3,13.73a3.34,3.34,0,0,1,1.3-.24,3.93,3.93,0,0,1,3,1.33l43.34,53.4A2,2,0,0,1,98.11,71.43Z"/><path class="cls-3" d="M96.66,27.63l-14.3,6a3.34,3.34,0,0,1-1.3.25,3.92,3.92,0,0,1-3-1.32L61.67,12.3a2,2,0,0,1,.81-3.22L76.77,3.13a3.44,3.44,0,0,1,1.31-.26,3.89,3.89,0,0,1,3,1.34L97.48,24.42A2,2,0,0,1,96.66,27.63Z"/><path class="cls-4" d="M98.11,71.43,74.75,81.16a3.42,3.42,0,0,1-1.31.24,3.85,3.85,0,0,1-3-1.32L47.06,51.24a5.3,5.3,0,0,0-4-1.79,4.62,4.62,0,0,0-1.78.34l-15.1,6.29a3.24,3.24,0,0,1-1.3.25,3.91,3.91,0,0,1-3-1.32L6,35.49a2,2,0,0,1,.81-3.22L51.3,13.73a3.34,3.34,0,0,1,1.3-.24,3.93,3.93,0,0,1,3,1.33l43.34,53.4A2,2,0,0,1,98.11,71.43Z"/></g></g></svg>