<svg xmlns="http://www.w3.org/2000/svg" viewBox="0 0 70.74 64.73"><g id="Livello_2" data-name="Livello 2"><g id="Livello_1-2" data-name="Livello 1"><path d="M69.73,17.93a3.55,3.55,0,0,0-.8-2.23L57.61,1.76A5.07,5.07,0,0,0,53.74,0,4.54,4.54,0,0,0,52,.34L42.12,4.45a3.35,3.35,0,0,0-1.83,1.69h-.06l-.15.57-.46,1.9a5.17,5.17,0,0,0-3.43-1.3,4.59,4.59,0,0,0-1.78.35L3.74,20.44A3.49,3.49,0,0,0,2.23,21.6h0a11.93,11.93,0,0,0-.81,2.26L.09,29.3a3.32,3.32,0,0,0,.73,2.92L11.74,45.67a3,3,0,0,0,.5.53l.17.13a4.74,4.74,0,0,0,.42.3l.16.1c.19.11.36.19.62.31h.05l.14,0a7,7,0,0,0,.69.19,1.8,1.8,0,0,0,.36.06,3.36,3.36,0,0,0,.63.06h.35l.52-.07h.16l.08,0a4.88,4.88,0,0,0,.76-.23l10.43-4.35.24,0h.15a2.69,2.69,0,0,1,.29,0l.25.07A1.37,1.37,0,0,1,29,43l.16.14L45.25,63a3.62,3.62,0,0,0,.51.53l.17.13c.09.08.21.16.33.25l.06,0,.19.11a3.7,3.7,0,0,0,.63.31l.15.06a5.32,5.32,0,0,0,.78.22l.27,0,.08,0a2.55,2.55,0,0,0,.51.06l.22,0h.17a4.27,4.27,0,0,0,.56-.07h.24a5.09,5.09,0,0,0,.78-.24L67,57.67a2.93,2.93,0,0,0,.66-.37l.14-.09a5,5,0,0,0,.41-.35l.12-.14a2.23,2.23,0,0,0,.43-.59A3.16,3.16,0,0,0,69,55.4l1.62-6.6a3,3,0,0,0,.09-.75,3.41,3.41,0,0,0-.81-2.15l-12.17-15L66,27.48a6,6,0,0,0,.63-.33l0,0,0,0,.13-.1a2.47,2.47,0,0,0,.42-.37l.09-.09,0,0a2.88,2.88,0,0,0,.4-.58,2.3,2.3,0,0,0,.28-.75l1.44-5.85h0l.18-.73,0-.16ZM28.44,34.33,18,38.67a2.29,2.29,0,0,1-.9.17,2.7,2.7,0,0,1-2.06-.91L4.15,24.47a1.35,1.35,0,0,1,.56-2.22L35.37,9.47a2.29,2.29,0,0,1,.9-.17,2.71,2.71,0,0,1,2.06.92L68.21,47a1.34,1.34,0,0,1-.56,2.21L51.54,56a2.29,2.29,0,0,1-.9.17,2.68,2.68,0,0,1-2-.91L32.45,35.33a3.65,3.65,0,0,0-2.78-1.23A3.17,3.17,0,0,0,28.44,34.33ZM43.08,6.26l9.85-4.1A2.34,2.34,0,0,1,53.84,2a2.71,2.71,0,0,1,2.06.92L67.21,16.84a1.34,1.34,0,0,1-.56,2.21l-9.86,4.11a2.29,2.29,0,0,1-.9.17,2.7,2.7,0,0,1-2.06-.91L42.52,8.48A1.35,1.35,0,0,1,43.08,6.26Z"/></g></g></svg>