<svg xmlns="http://www.w3.org/2000/svg" viewBox="0 0 53.08 48.47"><defs><style>.cls-1,.cls-2,.cls-3{stroke:#1d1d1b;stroke-miterlimit:10;}.cls-2{fill:#85b3ff;}.cls-2,.cls-3{stroke-width:0.25px;}.cls-3{fill:#f15a24;}</style></defs><g id="Livello_2" data-name="Livello 2"><g id="Livello_1-2" data-name="Livello 1"><path class="cls-1" d="M52.2,35.29,42,22.67l.08,0L49.6,19.5a1.31,1.31,0,0,0,.31-.17l.08,0,.19-.16.06-.07a.81.81,0,0,0,.17-.24h0a.91.91,0,0,0,.12-.31l1.24-5.05h0a1.52,1.52,0,0,0-.35-1.31L42.76,1.45A2.83,2.83,0,0,0,39.68.68L32.13,3.83a1.43,1.43,0,0,0-1,1.17.47.47,0,0,1,0-.17l-.87,3.51-1-1.28a2.83,2.83,0,0,0-3.08-.77L2.71,16.09a1.43,1.43,0,0,0-.95,1.17c0-.06,0-.12,0-.18L.54,22.14a1.49,1.49,0,0,0,.34,1.31L9.26,33.76a1.66,1.66,0,0,0,.26.27l.09.07.22.16.11.07a1.69,1.69,0,0,0,.27.13l.07,0h0l.07,0a3.45,3.45,0,0,0,.43.12l.08,0H11a2.12,2.12,0,0,0,.44,0h.09a2.85,2.85,0,0,0,.29,0l.14,0a2.77,2.77,0,0,0,.41-.12l8-3.33.3-.09.11,0,.21,0H21l.32,0,.11,0a2,2,0,0,1,.33.09h.05a3.22,3.22,0,0,1,.37.2l.08.06a1.72,1.72,0,0,1,.31.29L35,47a3.31,3.31,0,0,0,.26.27l.09.07.22.16.11.06.27.14.08,0h0l.06,0a3.6,3.6,0,0,0,.44.12l.07,0h.08a3.25,3.25,0,0,0,.44,0h.1l.28,0h.15a1.87,1.87,0,0,0,.4-.13l12.35-5.14a2.27,2.27,0,0,0,.31-.17l.08-.06a.93.93,0,0,0,.18-.16L51,42.2a1,1,0,0,0,.17-.25h0a.91.91,0,0,0,.12-.31l1.25-5.06h0A1.47,1.47,0,0,0,52.2,35.29Zm.23,1.6h0l0-.1A1,1,0,0,1,52.43,36.89Zm-1-22.9h0l.06-.08A.24.24,0,0,1,51.48,14Zm-.24.22h0l0,0ZM23.35,25.82l-.07,0h0l.07,0Zm-.15-.06ZM23,25.68l-.06,0,.06,0Zm.68.28.08,0h0l-.08,0Zm.32.22.07,0-.07,0ZM31.5,6.06a1.45,1.45,0,0,1-.17-.26,1.45,1.45,0,0,0,.17.26ZM2.44,17h0a.57.57,0,0,1,.08-.13h0A.5.5,0,0,0,2.44,17Zm0,.1a.61.61,0,0,0,0,.12h0a.5.5,0,0,1,0-.13Zm-.32,1.21a1.32,1.32,0,0,1-.16-.25,1.32,1.32,0,0,0,.16.25ZM52,37.36l0,0,0,0Zm.25-.22.06-.09a.47.47,0,0,1-.06.09Zm-.59-23.39ZM32.07,4.48h0L32,4.54h0Zm-.13.14h0l-.08.11A.76.76,0,0,1,31.94,4.62Zm-.75.72a1.38,1.38,0,0,1,0-.2A1.38,1.38,0,0,0,31.19,5.34Zm.1.35a1.45,1.45,0,0,1-.09-.22A1.45,1.45,0,0,0,31.29,5.69ZM2.78,16.62h0L3,16.49Zm-.13.12h0l-.07.05h0Zm-.88.86,0-.2Zm.1.35a2,2,0,0,1-.08-.22A2,2,0,0,0,1.87,18Z"/><path class="cls-2" d="M40,1.08a2.07,2.07,0,0,1,2.27.57L51,12.34A1,1,0,0,1,50.52,14L43,17.18a2.06,2.06,0,0,1-2.27-.57L32,5.93a1,1,0,0,1,.42-1.7Z"/><path class="cls-3" d="M26.54,6.69a2.08,2.08,0,0,1,2.27.57L51.72,35.49a1,1,0,0,1-.43,1.69L38.94,42.33a2.07,2.07,0,0,1-2.26-.57L24.31,26.52a2.81,2.81,0,0,0-3.08-.77l-8,3.32A2.06,2.06,0,0,1,11,28.5L2.61,18.18A1,1,0,0,1,3,16.49Z"/></g></g></svg>