<svg xmlns="http://www.w3.org/2000/svg" viewBox="0 0 436.12 93.88"><defs><style>.cls-1{fill:#fff;}.cls-2{fill:none;}.cls-3{fill:#85b3ff;}.cls-4{fill:#f15a24;}</style></defs><g id="Livello_2" data-name="Livello 2"><g id="Livello_1-2" data-name="Livello 1"><path d="M136.54,35V54.6c0,3,1.54,4.36,4.16,4.36a13.49,13.49,0,0,0,4-.73v4.9a17,17,0,0,1-5.38.95c-4.77,0-8.54-2.63-8.54-8.88V35h-5.44V30.32h5.44V22.45l5.79-4.3V30.32h8.13V35Z"/><path d="M178.51,42.76V63.47H173.2l-.4-5c-2.36,3.57-6.32,5.59-11.3,5.59-7.13,0-11.64-4-11.64-10.43A8.25,8.25,0,0,1,154,46c2.48-1.35,5.78-1.89,11.36-1.89h7.33V42.76c0-5.11-2.83-7.94-7.87-7.94-3.9,0-7.06,1.82-9.68,5.32L151,36.64a16.75,16.75,0,0,1,14-6.93C173.47,29.71,178.51,34.56,178.51,42.76Zm-5.78,6.18v-.33h-6.66c-5,0-7.32.4-8.74,1.48a4.67,4.67,0,0,0-1.68,3.83c0,3.23,2.76,5.32,7.2,5.32C168.69,59.24,172.73,55.07,172.73,48.94Z"/><path d="M185.32,55.2l4.78-2.15a8.79,8.79,0,0,0,8.74,6.05c4.3,0,6.72-2.22,6.72-5.11,0-7.73-18.42-2.83-18.42-14.79,0-6,5.11-9.49,11.63-9.49,5.45,0,9.82,2.43,12.17,7.07l-4.57,2.48a8.28,8.28,0,0,0-7.74-4.64c-3.63,0-5.91,1.55-5.91,4,0,6.93,18.56,2.62,18.56,15.06,0,7.06-5.92,10.43-12.24,10.43C192.38,64.08,187.07,60.38,185.32,55.2Z"/><path d="M226.76,35V54.6c0,3,1.54,4.36,4.17,4.36a13.6,13.6,0,0,0,4-.73v4.9a17.05,17.05,0,0,1-5.38.95c-4.78,0-8.55-2.63-8.55-8.88V35h-5.44V30.32H221V22.45l5.79-4.3V30.32h8.14V35Z"/><path d="M240,46.86c0-9.68,6.32-17.15,16.07-17.15s16.21,7.47,16.21,17.15S265.77,64.08,256,64.08,240,56.54,240,46.86Zm26.49,0c0-6.86-3.63-12-10.42-12s-10.29,5.25-10.29,12S249.3,59,256,59,266.44,53.59,266.44,46.86Z"/><path d="M308.09,49.55H285.36c.34,4.37,3,7.26,8.27,7.26a10,10,0,0,0,7.94-3.56l5.58,4.91a17.24,17.24,0,0,1-13.58,6c-11.44,0-16.28-8.2-16.28-17.08,0-8.67,4.71-17.41,15.74-17.41,10.29,0,15.27,7.6,15.27,16.81A23.6,23.6,0,0,1,308.09,49.55Zm-7.53-6.39c-.13-4.23-3.36-6.79-7.6-6.79-4.91,0-7.19,3.5-7.66,6.79Z"/><path d="M344.76,42.09V63.47h-8.07V44.1c0-2.28,0-7.39-6.12-7.39-7.53,0-7.53,7.6-7.53,13.51V63.47H315V30.32H323v3.83c2.35-3.16,6-4.5,10-4.5C340.52,29.65,344.76,34.22,344.76,42.09Z"/><path d="M362.87,36.71V53.59c0,2.62,1.61,3.83,4.24,3.83a14,14,0,0,0,4-.74v6.45a18.82,18.82,0,0,1-6.05,1c-5.58,0-10.29-2.89-10.29-10V36.71h-5.38V30.32h5.38V23.93l8.07-6V30.32h8.27v6.39Z"/><path d="M405.92,49.55H383.19c.33,4.37,3,7.26,8.27,7.26a10,10,0,0,0,7.94-3.56L405,58.16a17.23,17.23,0,0,1-13.58,6c-11.43,0-16.27-8.2-16.27-17.08,0-8.67,4.71-17.41,15.73-17.41,10.29,0,15.27,7.6,15.27,16.81A25.41,25.41,0,0,1,405.92,49.55Zm-7.54-6.39c-.13-4.23-3.36-6.79-7.59-6.79-4.91,0-7.2,3.5-7.67,6.79Z"/><path d="M436.12,31.53l-3.89,7.13a7.14,7.14,0,0,0-4-1.15c-4.91,0-7.33,3-7.33,9.28V63.47h-8.07V30.32h8.14V36a9.29,9.29,0,0,1,8.88-6.32A11.33,11.33,0,0,1,436.12,31.53Z"/><path class="cls-1" d="M98.9,27.06v0l.82.26Z"/><path class="cls-2" d="M98.9,27.06v0l.82.26Zm0,0v0l.82.26Zm0,0v0l.82.26Zm0,0v0l.82.26Zm0,0v0l.82.26Z"/><path d="M101.42,66.57,83.77,44.83l11.94-5a9.51,9.51,0,0,0,.91-.47l0,0,0-.05.19-.14a3.45,3.45,0,0,0,.6-.54l.13-.13,0,0a3.85,3.85,0,0,0,.58-.84,3.13,3.13,0,0,0,.41-1.09l2.09-8.48h0L101,27c0-.08,0-.16,0-.23l.07-.77A5.17,5.17,0,0,0,100,22.77L83.55,2.55A7.34,7.34,0,0,0,77.94,0a6.68,6.68,0,0,0-2.57.49l-14.28,6A4.9,4.9,0,0,0,58.43,8.9h-.08l-.22.83-.67,2.76a7.48,7.48,0,0,0-5-1.89,6.67,6.67,0,0,0-2.58.51L5.43,29.64a5.08,5.08,0,0,0-2.19,1.69A16.36,16.36,0,0,0,2.06,34.6L.13,42.49a4.83,4.83,0,0,0,1.06,4.24L17,66.23a4.2,4.2,0,0,0,.72.77l.25.19a6.61,6.61,0,0,0,.61.44l.23.14a9.39,9.39,0,0,0,.9.45l0,0h0l.21.07a9.06,9.06,0,0,0,1,.28,3.5,3.5,0,0,0,.52.09,5.59,5.59,0,0,0,.91.08h.13l.12,0H23l.75-.1.24,0,.11,0a6.64,6.64,0,0,0,1.1-.33L40.29,62l.35-.07s.06,0,.14,0h.08l.42.06.36.1a2,2,0,0,1,.39.23,1.26,1.26,0,0,1,.23.21l23.37,28.8a4.86,4.86,0,0,0,.74.77l.24.19c.13.11.31.23.48.36l.09.06.27.16a5.65,5.65,0,0,0,.92.45l.22.08a7.29,7.29,0,0,0,1.13.32l.39.06.11,0a4,4,0,0,0,.74.09,2.91,2.91,0,0,0,.32,0h.25a5.24,5.24,0,0,0,.81-.1h.22l.06,0h.07a9.18,9.18,0,0,0,1.13-.35l23.34-9.73a4.47,4.47,0,0,0,1-.54l.21-.13a6,6,0,0,0,.59-.51l.18-.2a3.25,3.25,0,0,0,.62-.86,4.49,4.49,0,0,0,.4-1.05l2.35-9.58a4.1,4.1,0,0,0,.13-1.08A4.93,4.93,0,0,0,101.42,66.57ZM62.48,9.08,76.77,3.13a3.44,3.44,0,0,1,1.31-.26,3.89,3.89,0,0,1,3,1.34L97.48,24.42a2,2,0,0,1-.82,3.21l-14.3,6a3.34,3.34,0,0,1-1.3.25,3.92,3.92,0,0,1-3-1.32L61.67,12.3A2,2,0,0,1,62.48,9.08ZM98.11,71.43,74.75,81.16a3.42,3.42,0,0,1-1.31.24,3.85,3.85,0,0,1-3-1.32L47.06,51.24a5.3,5.3,0,0,0-4-1.79,4.62,4.62,0,0,0-1.78.34l-15.1,6.29a3.24,3.24,0,0,1-1.3.25,3.91,3.91,0,0,1-3-1.32L6,35.49a2,2,0,0,1,.81-3.22L51.3,13.73a3.34,3.34,0,0,1,1.3-.24,3.93,3.93,0,0,1,3,1.33l43.34,53.4A2,2,0,0,1,98.11,71.43Z"/><path class="cls-3" d="M96.66,27.63l-14.3,6a3.34,3.34,0,0,1-1.3.25,3.92,3.92,0,0,1-3-1.32L61.67,12.3a2,2,0,0,1,.81-3.22L76.77,3.13a3.44,3.44,0,0,1,1.31-.26,3.89,3.89,0,0,1,3,1.34L97.48,24.42A2,2,0,0,1,96.66,27.63Z"/><path class="cls-4" d="M98.11,71.43,74.75,81.16a3.42,3.42,0,0,1-1.31.24,3.85,3.85,0,0,1-3-1.32L47.06,51.24a5.3,5.3,0,0,0-4-1.79,4.62,4.62,0,0,0-1.78.34l-15.1,6.29a3.24,3.24,0,0,1-1.3.25,3.91,3.91,0,0,1-3-1.32L6,35.49a2,2,0,0,1,.81-3.22L51.3,13.73a3.34,3.34,0,0,1,1.3-.24,3.93,3.93,0,0,1,3,1.33l43.34,53.4A2,2,0,0,1,98.11,71.43Z"/></g></g></svg>