<svg xmlns="http://www.w3.org/2000/svg" viewBox="0 0 224.82 324.5"><defs><style>.cls-1{fill:red;}.cls-1,.cls-3{stroke:#000;stroke-miterlimit:10;stroke-width:2px;}.cls-2,.cls-3{fill:#fff;}</style></defs><g id="Livello_2" data-name="Livello 2"><g id="Livello_1-2" data-name="Livello 1"><rect x="42.95" y="4.93" width="93.47" height="49.19" rx="24.6"/><rect class="cls-1" x="38.88" y="1" width="93.47" height="49.19" rx="24.6"/><path class="cls-2" d="M223.82,302.3c0,11.73-8.64,21.2-19.35,21.2H88.37C77.66,323.5,69,314,69,302.3s8.64-21.2,19.35-21.2h.68a23.48,23.48,0,0,1-10.53-6L9.07,211.85c-9.5-8.62-10.79-24.12-2.92-34.53,7.22-9.47,20-10.79,28.72-2.92l30.75,27.7V38c0-10.36,8.73-18.75,19.52-18.75S104.62,27.66,104.62,38V97.61c0-11.82,8.73-21.38,19.52-21.38s19.53,9.56,19.53,21.38v19c0-11.78,8.72-21.39,19.48-21.39s19.52,9.61,19.52,21.39v19c0-11.77,8.73-21.34,19.48-21.34s19.52,9.57,19.52,21.34v90.26l-1.08,21.06c-1,17.29-11.65,31.47-26.44,34.2h10.32C215.18,281.1,223.82,290.57,223.82,302.3Z"/><path class="cls-2" d="M104.63,172.4V97.61c0-11.8,8.74-21.37,19.51-21.37h0c10.77,0,19.51,9.57,19.51,21.37v79.54"/><path class="cls-2" d="M143.65,116.6c0-11.8,8.73-21.37,19.5-21.37h0c10.77,0,19.51,9.57,19.51,21.37v19"/><path class="cls-2" d="M104.63,155.89V38c0-10.37-8.73-18.77-19.5-18.77h0c-10.77,0-19.51,8.4-19.51,18.77V202.08L34.85,174.42c-8.65-7.87-21.49-6.57-28.68,2.91h0c-7.9,10.42-6.6,25.89,2.92,34.54l69.43,63.19s7.16,7.74,17.72,6.56h92.64c17.51,0,30.62-15.44,31.71-34.73l1.08-21.07V135.6c0-11.81-8.73-21.37-19.51-21.37h0c-10.77,0-19.5,9.56-19.5,21.37v49.86"/><rect class="cls-3" x="69.02" y="281.1" width="154.8" height="42.4" rx="21.2"/><path class="cls-3" d="M104.63,172.4V97.61c0-11.8,8.74-21.37,19.51-21.37h0c10.77,0,19.51,9.57,19.51,21.37v79.54"/><path class="cls-3" d="M143.65,116.6c0-11.8,8.73-21.37,19.5-21.37h0c10.77,0,19.51,9.57,19.51,21.37v19"/><path class="cls-3" d="M104.63,155.89V38c0-10.37-8.73-18.77-19.5-18.77h0c-10.77,0-19.51,8.4-19.51,18.77V202.08L34.85,174.42c-8.65-7.87-21.49-6.57-28.68,2.91h0c-7.9,10.42-6.6,25.89,2.92,34.54l69.43,63.19s7.16,7.74,17.72,6.56h92.64c17.51,0,30.62-15.44,31.71-34.73l1.08-21.07V135.6c0-11.81-8.73-21.37-19.51-21.37h0c-10.77,0-19.5,9.56-19.5,21.37v49.86"/></g></g></svg>