<svg xmlns="http://www.w3.org/2000/svg" viewBox="0 0 224.82 331.76"><defs><style>.cls-1{fill:#39b54a;}.cls-1,.cls-3{stroke:#000;stroke-miterlimit:10;stroke-width:2px;}.cls-2,.cls-3{fill:#fff;}</style></defs><g id="Livello_2" data-name="Livello 2"><g id="Livello_1-2" data-name="Livello 1"><path d="M59.27,4.93h61a31.39,31.39,0,0,1,31.39,31.39v0a32.32,32.32,0,0,1-32.32,32.32H60.2A32.32,32.32,0,0,1,27.88,36.32v0A31.39,31.39,0,0,1,59.27,4.93Z"/><path class="cls-1" d="M54.2,1h61a31.39,31.39,0,0,1,31.39,31.39v0a32.32,32.32,0,0,1-32.32,32.32H55.13A32.32,32.32,0,0,1,22.81,32.39v0A31.39,31.39,0,0,1,54.2,1Z"/><path class="cls-2" d="M223.82,309.56c0,11.73-8.64,21.2-19.35,21.2H88.37c-10.71,0-19.35-9.47-19.35-21.2s8.64-21.2,19.35-21.2h.68a23.48,23.48,0,0,1-10.53-6L9.07,219.11C-.43,210.49-1.72,195,6.15,184.58c7.22-9.47,20-10.79,28.72-2.92l30.75,27.7V45.28c0-10.36,8.73-18.75,19.52-18.75s19.48,8.39,19.48,18.75v59.6c0-11.83,8.73-21.39,19.52-21.39s19.53,9.56,19.53,21.39v19c0-11.78,8.72-21.39,19.48-21.39s19.52,9.61,19.52,21.39v19c0-11.77,8.73-21.34,19.48-21.34s19.52,9.57,19.52,21.34V233.1l-1.08,21.06c-1,17.29-11.65,31.47-26.44,34.2h10.32C215.18,288.36,223.82,297.83,223.82,309.56Z"/><path class="cls-2" d="M104.63,179.66V104.87c0-11.8,8.74-21.37,19.51-21.37h0c10.77,0,19.51,9.57,19.51,21.37v79.54"/><path class="cls-2" d="M143.65,123.86c0-11.8,8.73-21.37,19.5-21.37h0c10.77,0,19.51,9.57,19.51,21.37v19"/><path class="cls-2" d="M104.63,163.15V45.29c0-10.37-8.73-18.77-19.5-18.77h0c-10.77,0-19.51,8.4-19.51,18.77V209.34L34.85,181.68c-8.65-7.87-21.49-6.57-28.68,2.91h0c-7.9,10.42-6.6,25.89,2.92,34.55l69.43,63.18s7.16,7.74,17.72,6.56h92.64c17.51,0,30.62-15.44,31.71-34.73l1.08-21.07V142.86c0-11.8-8.73-21.37-19.51-21.37h0c-10.77,0-19.5,9.57-19.5,21.37v49.86"/><rect class="cls-3" x="69.02" y="288.36" width="154.8" height="42.4" rx="21.2"/><path class="cls-3" d="M104.63,179.66V104.87c0-11.8,8.74-21.37,19.51-21.37h0c10.77,0,19.51,9.57,19.51,21.37v79.54"/><path class="cls-3" d="M143.65,123.86c0-11.8,8.73-21.37,19.5-21.37h0c10.77,0,19.51,9.57,19.51,21.37v19"/><path class="cls-3" d="M104.63,163.15V45.29c0-10.37-8.73-18.77-19.5-18.77h0c-10.77,0-19.51,8.4-19.51,18.77V209.34L34.85,181.68c-8.65-7.87-21.49-6.57-28.68,2.91h0c-7.9,10.42-6.6,25.89,2.92,34.55l69.43,63.18s7.16,7.74,17.72,6.56h92.64c17.51,0,30.62-15.44,31.71-34.73l1.08-21.07V142.86c0-11.8-8.73-21.37-19.51-21.37h0c-10.77,0-19.5,9.57-19.5,21.37v49.86"/></g></g></svg>