<svg xmlns="http://www.w3.org/2000/svg" viewBox="0 0 223.82 330.76"><defs><style>.cls-1{fill:#39b54a;}.cls-1,.cls-3{stroke:#000;stroke-miterlimit:10;}.cls-2,.cls-3{fill:#fff;}</style></defs><g id="Livello_2" data-name="Livello 2"><g id="Livello_1-2" data-name="Livello 1"><path d="M56.77,4.43h61a31.39,31.39,0,0,1,31.39,31.39v0a32.32,32.32,0,0,1-32.32,32.32H57.7A32.32,32.32,0,0,1,25.38,35.82v0A31.39,31.39,0,0,1,56.77,4.43Z"/><path class="cls-1" d="M53.7.5h61a31.39,31.39,0,0,1,31.39,31.39v0a32.32,32.32,0,0,1-32.32,32.32H54.63A32.32,32.32,0,0,1,22.31,31.89v0A31.39,31.39,0,0,1,53.7.5Z"/><path class="cls-2" d="M223.32,309.06c0,11.73-8.64,21.2-19.35,21.2H87.87c-10.71,0-19.35-9.47-19.35-21.2s8.64-21.2,19.35-21.2h.68a23.48,23.48,0,0,1-10.53-6L8.57,218.61C-.93,210-2.22,194.49,5.65,184.08c7.22-9.47,20-10.79,28.72-2.92l30.75,27.7V44.78C65.12,34.42,73.85,26,84.64,26s19.48,8.39,19.48,18.75v59.6c0-11.83,8.73-21.39,19.52-21.39s19.53,9.56,19.53,21.39v19c0-11.78,8.72-21.39,19.48-21.39s19.52,9.61,19.52,21.39v19c0-11.77,8.73-21.34,19.48-21.34s19.52,9.57,19.52,21.34V232.6l-1.08,21.06c-1,17.29-11.65,31.47-26.44,34.2H204C214.68,287.86,223.32,297.33,223.32,309.06Z"/><path class="cls-2" d="M104.13,179.16V104.37c0-11.8,8.74-21.37,19.51-21.37h0c10.77,0,19.51,9.57,19.51,21.37v79.54"/><path class="cls-2" d="M143.15,123.36c0-11.8,8.73-21.37,19.5-21.37h0c10.77,0,19.51,9.57,19.51,21.37v19"/><path class="cls-2" d="M104.13,162.65V44.79C104.13,34.42,95.4,26,84.63,26h0c-10.77,0-19.51,8.4-19.51,18.77V208.84L34.35,181.18c-8.65-7.87-21.49-6.57-28.68,2.91h0c-7.9,10.42-6.6,25.89,2.92,34.55L78,281.82s7.16,7.74,17.72,6.56h92.64c17.51,0,30.62-15.44,31.71-34.73l1.08-21.07V142.36c0-11.8-8.73-21.37-19.51-21.37h0c-10.77,0-19.5,9.57-19.5,21.37v49.86"/><rect class="cls-3" x="68.52" y="287.86" width="154.8" height="42.4" rx="21.2"/><path class="cls-3" d="M104.13,179.16V104.37c0-11.8,8.74-21.37,19.51-21.37h0c10.77,0,19.51,9.57,19.51,21.37v79.54"/><path class="cls-3" d="M143.15,123.36c0-11.8,8.73-21.37,19.5-21.37h0c10.77,0,19.51,9.57,19.51,21.37v19"/><path class="cls-3" d="M104.13,162.65V44.79C104.13,34.42,95.4,26,84.63,26h0c-10.77,0-19.51,8.4-19.51,18.77V208.84L34.35,181.18c-8.65-7.87-21.49-6.57-28.68,2.91h0c-7.9,10.42-6.6,25.89,2.92,34.55L78,281.82s7.16,7.74,17.72,6.56h92.64c17.51,0,30.62-15.44,31.71-34.73l1.08-21.07V142.36c0-11.8-8.73-21.37-19.51-21.37h0c-10.77,0-19.5,9.57-19.5,21.37v49.86"/></g></g></svg>