<svg xmlns="http://www.w3.org/2000/svg" viewBox="0 0 475.45 136.43"><defs><style>.cls-1{fill:#fff;}.cls-2{fill:#ffc900;}.cls-2,.cls-3,.cls-4{stroke:#000;stroke-miterlimit:10;stroke-width:2px;}.cls-3{fill:red;}.cls-4{fill:none;}</style></defs><g id="Livello_2" data-name="Livello 2"><g id="Livello_1-2" data-name="Livello 1"><rect x="6.27" y="6.32" width="469.18" height="130.11" rx="17.03"/><rect class="cls-1" x="1" y="1" width="467.18" height="128.11" rx="16.03"/><path d="M452.16,2a15,15,0,0,1,15,15v96.05a15,15,0,0,1-15,15H17a15,15,0,0,1-15-15V17A15,15,0,0,1,17,2H452.16m0-2H17A17,17,0,0,0,0,17v96.05a17,17,0,0,0,17,17H452.16a17,17,0,0,0,17-17V17a17,17,0,0,0-17-17Z"/><circle class="cls-2" cx="68.3" cy="89.25" r="10.88"/><path class="cls-2" d="M68.76,92c3.11-1.89,33.14-17.24,25.49-23.77C86.1,61.25,82.38,56.49,78,48.36c-.33-.84-.69-1.67-1.09-2.49a36.48,36.48,0,0,0-2.13-3.78h0c-8.31-13-23.58-18.8-36.25-13.39l0,0c-.19.09-.36.19-.55.29l-.56.25,0,0C25.35,35.85,20.47,51.46,25.54,66h0a37.28,37.28,0,0,0,1.66,4c.4.83.83,1.62,1.28,2.4,3.7,8.46,5.14,14.32,5.56,25,.4,10,31-4.07,34.44-5.35Z"/><circle class="cls-3" cx="79" cy="36.17" r="12.51"/><path d="M81.18,28.82V43.58H78.64V33.25H75.19V31.13h2c1,0,1.49-.42,1.49-1.42v-.89Z"/><line class="cls-4" x1="139.5" y1="43.58" x2="427.41" y2="43.58"/><line class="cls-4" x1="139.5" y1="67.23" x2="427.41" y2="67.23"/><line class="cls-4" x1="139.5" y1="90.89" x2="427.41" y2="90.89"/></g></g></svg>