<svg xmlns="http://www.w3.org/2000/svg" viewBox="0 0 475.91 136.43"><defs><style>.cls-1{fill:#fff;}.cls-2{fill:#ffc900;}.cls-2,.cls-3,.cls-4{stroke:#000;stroke-miterlimit:10;stroke-width:2px;}.cls-3{fill:red;}.cls-4{fill:none;}</style></defs><g id="Livello_2" data-name="Livello 2"><g id="Livello_1-2" data-name="Livello 1"><rect y="6.32" width="469.18" height="130.11" rx="17.03"/><rect class="cls-1" x="7.73" y="1" width="467.18" height="128.11" rx="16.03"/><path d="M458.89,2a15,15,0,0,1,15,15v96.05a15,15,0,0,1-15,15H23.76a15,15,0,0,1-15-15V17a15,15,0,0,1,15-15H458.89m0-2H23.76a17,17,0,0,0-17,17v96.05a17,17,0,0,0,17,17H458.89a17,17,0,0,0,17-17V17a17,17,0,0,0-17-17Z"/><circle class="cls-2" cx="75.03" cy="89.25" r="10.88"/><path class="cls-2" d="M75.49,92C78.6,90.07,108.64,74.72,101,68.19c-8.15-6.94-11.87-11.7-16.24-19.83-.33-.84-.69-1.67-1.09-2.49a38.35,38.35,0,0,0-2.12-3.78h0c-8.32-13-23.59-18.8-36.26-13.39l0,0c-.19.09-.36.19-.55.29l-.56.25,0,0C32.08,35.85,27.2,51.46,32.27,66h0a37.28,37.28,0,0,0,1.66,4c.4.83.83,1.62,1.28,2.4,3.7,8.46,5.14,14.32,5.56,25,.4,10,31-4.07,34.44-5.35Z"/><circle class="cls-3" cx="85.73" cy="36.17" r="12.51"/><path d="M87.91,28.82V43.58H85.37V33.25H81.92V31.13h2c1,0,1.49-.42,1.49-1.42v-.89Z"/><line class="cls-4" x1="146.24" y1="43.58" x2="434.14" y2="43.58"/><line class="cls-4" x1="146.24" y1="67.23" x2="434.14" y2="67.23"/><line class="cls-4" x1="146.24" y1="90.89" x2="434.14" y2="90.89"/></g></g></svg>