<svg xmlns="http://www.w3.org/2000/svg" viewBox="0 0 82 82"><defs><style>.cls-1{fill:#fff;}</style></defs><g id="Livello_2" data-name="Livello 2"><g id="Livello_1-2" data-name="Livello 1"><rect width="82" height="82" rx="10.19"/><path class="cls-1" d="M36.28,47c0-14.39,14.66-10.13,14.66-20.53,0-5.86-4.17-8.44-10.22-8.44-6.39,0-9.47,3.09-10,8.75a1.88,1.88,0,0,1-1.86,1.74H23.21a1.88,1.88,0,0,1-1.88-2c.79-11,8.21-17.37,19-17.37,10.66,0,19.91,6.05,19.91,17.51,0,16.09-14.93,14.4-14.93,20.45v4.43a1.88,1.88,0,0,1-1.88,1.87H38.15a1.87,1.87,0,0,1-1.87-1.87Zm2.08,13.43h5.17a3.23,3.23,0,0,1,3.24,3.23v5.09A3.24,3.24,0,0,1,43.53,72H38.36a3.24,3.24,0,0,1-3.24-3.23V63.68A3.23,3.23,0,0,1,38.36,60.45Z"/></g></g></svg>