<svg xmlns="http://www.w3.org/2000/svg" viewBox="0 0 127.65 133.14"><defs><style>.cls-1{fill:#ffc900;stroke:#000;stroke-miterlimit:10;stroke-width:2px;}</style></defs><g id="Livello_2" data-name="Livello 2"><g id="Livello_1-2" data-name="Livello 1"><rect y="32.6" width="120.65" height="100.54" rx="19.1"/><rect class="cls-1" x="6" y="27.6" width="120.65" height="100.54" rx="19.1"/><path d="M95.78,27.6H87.89a21.65,21.65,0,0,0-43.13,0H36.87a29.52,29.52,0,0,1,58.91,0Z"/><path d="M76.52,63.42a10.19,10.19,0,1,0-15.29,8.79v28.17a2.13,2.13,0,0,0,2.13,2.13h5.93a2.13,2.13,0,0,0,2.13-2.13V72.21A10.15,10.15,0,0,0,76.52,63.42Z"/></g></g></svg>