<svg xmlns="http://www.w3.org/2000/svg" viewBox="0 0 127.15 133.14"><defs><style>.cls-1{fill:#ffc900;stroke:#000;stroke-miterlimit:10;}</style></defs><g id="Livello_2" data-name="Livello 2"><g id="Livello_1-2" data-name="Livello 1"><rect x="6.5" y="32.6" width="120.65" height="100.54" rx="19.1"/><rect class="cls-1" x="0.5" y="27.6" width="120.65" height="100.54" rx="19.1"/><path d="M90.28,27.6H82.39a21.65,21.65,0,0,0-43.13,0H31.37A29.52,29.52,0,0,1,81.72,8.67,29.18,29.18,0,0,1,90.28,27.6Z"/><path d="M71,63.42a10.19,10.19,0,1,0-15.29,8.79v28.17a2.13,2.13,0,0,0,2.13,2.13h5.93a2.13,2.13,0,0,0,2.13-2.13V72.21A10.15,10.15,0,0,0,71,63.42Z"/></g></g></svg>