<svg xmlns="http://www.w3.org/2000/svg" viewBox="0 0 434.01 386.02"><defs><style>.cls-1{fill:#85b3ff;}.cls-1,.cls-2{stroke:#000;stroke-miterlimit:10;stroke-width:0.75px;}.cls-2{fill:#e01e77;}</style></defs><g id="Livello_2" data-name="Livello 2"><g id="Livello_1-2" data-name="Livello 1"><ellipse cx="217" cy="210.41" rx="216.63" ry="175.61"/><ellipse class="cls-1" cx="217" cy="186.55" rx="216.63" ry="175.61"/><ellipse cx="217" cy="163.36" rx="175.85" ry="142.55"/><ellipse class="cls-2" cx="217" cy="142.93" rx="175.85" ry="142.55"/><path d="M108.3,81.72h17.59c12,0,18.29,4.55,18.29,13.46S137.77,109,125.89,109h-8v19.35H108.3Zm16.59,19.62c6.79,0,9.64-1.81,9.64-6s-2.78-5.89-9.64-5.89h-7v11.92Z"/><path d="M182.69,128.39,169.81,109H163v19.35h-9.57V81.72H171c12.81,0,18.29,5.09,18.29,13.46,0,6.69-3.55,11-10,12.85l14.51,20.36Zm-12.65-27c6.25,0,9.64-1.47,9.64-6s-3.39-5.89-9.64-5.89h-7v11.92Z"/><path d="M201.46,81.72h35.8v7.7H211.1v11.11h24.31v7.71H211.1v12.45h26.16v7.7h-35.8Z"/><path d="M243.37,115.2l9.57-2.08c.69,5.56,4.93,8.71,11.18,8.71,5.4,0,8.88-2.34,8.88-6.3,0-3.21-2.78-5.22-10.73-8C251,103.75,247,100.2,247,93.44c0-7.57,6.72-12.72,16.75-12.72,7.25,0,13,2.87,16.35,8.5l-8,4.28a9.57,9.57,0,0,0-8.64-5.35c-3.86,0-6.79,2.21-6.79,5.09,0,3.08,2.62,4.82,10.72,7.56,11.5,3.82,15.28,7.37,15.28,14,0,8.7-7.64,14.46-18.67,14.46C253.24,129.26,244.91,123.7,243.37,115.2Z"/><path d="M286.44,115.2l9.56-2.08c.7,5.56,4.94,8.71,11.19,8.71,5.4,0,8.87-2.34,8.87-6.3,0-3.21-2.78-5.22-10.72-8-11.27-3.82-15.28-7.37-15.28-14.13,0-7.57,6.71-12.72,16.74-12.72,7.26,0,13,2.87,16.36,8.5l-8,4.28a9.59,9.59,0,0,0-8.65-5.35c-3.85,0-6.78,2.21-6.78,5.09,0,3.08,2.62,4.82,10.72,7.56,11.49,3.82,15.28,7.37,15.28,14,0,8.7-7.64,14.46-18.67,14.46C296.31,129.26,288,123.7,286.44,115.2Z"/><path d="M220,147.39v46.67h-9.64V159.17L197,190h-9.33l-13.35-30.81v34.89h-9.65V147.39h13.81l13.81,32.88,13.89-32.88Z"/><path d="M233.57,147.39h35.79v7.7H243.21v11.12h24.3v7.7h-24.3v12.45h26.15v7.7H233.57Z"/></g></g></svg>