<svg xmlns="http://www.w3.org/2000/svg" viewBox="0 0 435.76 386.14"><defs><style>.cls-1{fill:#85b3ff;}.cls-1,.cls-2{stroke:#000;stroke-miterlimit:10;}.cls-2{fill:#e01e77;}</style></defs><g id="Livello_2" data-name="Livello 2"><g id="Livello_1-2" data-name="Livello 1"><ellipse cx="219.13" cy="210.53" rx="216.63" ry="175.61"/><ellipse class="cls-1" cx="217.13" cy="186.67" rx="216.63" ry="175.61"/><ellipse cx="219.13" cy="163.48" rx="175.85" ry="142.55"/><ellipse class="cls-2" cx="217.13" cy="143.05" rx="175.85" ry="142.55"/><path d="M107,81.84h17.59c12,0,18.29,4.56,18.29,13.46s-6.41,13.87-18.29,13.87h-8v19.35H107Zm16.59,19.62c6.79,0,9.64-1.8,9.64-6s-2.78-5.9-9.64-5.9h-7v11.92Z"/><path d="M181.43,128.52l-12.88-19.35h-6.79v19.35h-9.57V81.84h17.59c12.81,0,18.29,5.09,18.29,13.46,0,6.7-3.55,11-10,12.86l14.51,20.36Zm-12.65-27.06c6.25,0,9.64-1.47,9.64-6s-3.39-5.9-9.64-5.9h-7v11.92Z"/><path d="M200.2,81.84H236v7.7H209.84v11.12h24.31v7.7H209.84v12.45H236v7.71H200.2Z"/><path d="M242.11,115.33l9.57-2.08c.69,5.56,4.93,8.7,11.18,8.7,5.4,0,8.87-2.34,8.87-6.29,0-3.22-2.77-5.22-10.72-8-11.26-3.82-15.28-7.37-15.28-14.13,0-7.57,6.72-12.72,16.75-12.72,7.25,0,13,2.88,16.35,8.5l-8,4.29a9.58,9.58,0,0,0-8.64-5.36c-3.86,0-6.79,2.21-6.79,5.09,0,3.08,2.62,4.82,10.72,7.57,11.5,3.82,15.28,7.37,15.28,14,0,8.71-7.64,14.47-18.67,14.47C252,129.39,243.65,123.83,242.11,115.33Z"/><path d="M285.18,115.33l9.56-2.08c.7,5.56,4.94,8.7,11.19,8.7,5.4,0,8.87-2.34,8.87-6.29,0-3.22-2.78-5.22-10.72-8-11.27-3.82-15.28-7.37-15.28-14.13,0-7.57,6.71-12.72,16.74-12.72,7.26,0,13,2.88,16.36,8.5l-8,4.29a9.6,9.6,0,0,0-8.65-5.36c-3.85,0-6.79,2.21-6.79,5.09,0,3.08,2.63,4.82,10.73,7.57,11.49,3.82,15.27,7.37,15.27,14,0,8.71-7.63,14.47-18.67,14.47C295.05,129.39,286.72,123.83,285.18,115.33Z"/><path d="M218.7,147.51v46.68h-9.64V159.3l-13.35,30.8h-9.33L173,159.3v34.89h-9.65V147.51h13.81L191,180.39l13.89-32.88Z"/><path d="M232.31,147.51H268.1v7.7H242v11.12h24.3V174H242v12.45H268.1v7.71H232.31Z"/></g></g></svg>