<svg xmlns="http://www.w3.org/2000/svg" viewBox="0 0 434.26 375.58"><defs><style>.cls-1{fill:#85b3ff;}.cls-1,.cls-2{stroke:#000;stroke-miterlimit:10;}.cls-2{fill:#e01e77;}</style></defs><g id="Livello_2" data-name="Livello 2"><g id="Livello_1-2" data-name="Livello 1"><ellipse cx="217.13" cy="199.97" rx="216.63" ry="175.61"/><ellipse class="cls-1" cx="217.13" cy="176.11" rx="216.63" ry="175.61"/><ellipse class="cls-2" cx="217.13" cy="167.49" rx="175.85" ry="142.55"/><path d="M108.43,106.28H126c12,0,18.28,4.55,18.28,13.46S137.9,133.6,126,133.6h-8V153h-9.56ZM125,125.9c6.79,0,9.65-1.81,9.65-6S131.88,114,125,114h-7V125.9Z"/><path d="M182.82,153,169.93,133.6h-6.79V153h-9.56V106.28h17.59c12.81,0,18.28,5.09,18.28,13.46,0,6.69-3.55,11-9.95,12.86L194,153Zm-12.66-27c6.25,0,9.65-1.47,9.65-6s-3.4-5.9-9.65-5.9h-7V125.9Z"/><path d="M201.58,106.28h35.8V114H211.23v11.11h24.3v7.71h-24.3v12.45h26.15V153h-35.8Z"/><path d="M243.49,139.76l9.57-2.07c.69,5.55,4.94,8.7,11.19,8.7,5.4,0,8.87-2.34,8.87-6.29,0-3.22-2.78-5.23-10.72-8-11.27-3.82-15.28-7.37-15.28-14.13,0-7.57,6.71-12.72,16.74-12.72,7.25,0,13,2.87,16.36,8.5l-8,4.28a9.59,9.59,0,0,0-8.65-5.35c-3.85,0-6.79,2.21-6.79,5.09,0,3.08,2.63,4.82,10.73,7.56,11.49,3.82,15.27,7.37,15.27,14,0,8.7-7.63,14.46-18.67,14.46C253.37,153.82,245,148.26,243.49,139.76Z"/><path d="M286.56,139.76l9.57-2.07c.69,5.55,4.94,8.7,11.19,8.7,5.39,0,8.87-2.34,8.87-6.29,0-3.22-2.78-5.23-10.73-8-11.26-3.82-15.27-7.37-15.27-14.13,0-7.57,6.71-12.72,16.74-12.72,7.25,0,13,2.87,16.36,8.5l-8,4.28a9.56,9.56,0,0,0-8.64-5.35c-3.86,0-6.79,2.21-6.79,5.09,0,3.08,2.62,4.82,10.72,7.56,11.5,3.82,15.28,7.37,15.28,14,0,8.7-7.64,14.46-18.67,14.46C296.44,153.82,288.1,148.26,286.56,139.76Z"/><path d="M220.08,172v46.67h-9.64V183.73L197.1,214.54h-9.34l-13.35-30.81v34.89h-9.64V172h13.81l13.81,32.88L206.28,172Z"/><path d="M233.69,172h35.8v7.7H243.33v11.12h24.31v7.7H243.33v12.45h26.16v7.7h-35.8Z"/></g></g></svg>