<svg xmlns="http://www.w3.org/2000/svg" viewBox="0 0 435.26 376.08"><defs><style>.cls-1{fill:#85b3ff;}.cls-1,.cls-2{stroke:#000;stroke-miterlimit:10;stroke-width:2px;}.cls-2{fill:#e01e77;}</style></defs><g id="Livello_2" data-name="Livello 2"><g id="Livello_1-2" data-name="Livello 1"><ellipse cx="217.63" cy="200.47" rx="216.63" ry="175.61"/><ellipse class="cls-1" cx="217.63" cy="176.61" rx="216.63" ry="175.61"/><ellipse class="cls-2" cx="217.63" cy="166.99" rx="175.85" ry="142.55"/><path d="M107.54,105.78h17.59c12,0,18.29,4.55,18.29,13.46S137,133.1,125.13,133.1h-8v19.35h-9.57Zm16.59,19.62c6.79,0,9.64-1.81,9.64-6s-2.78-5.9-9.64-5.9h-7V125.4Z"/><path d="M181.93,152.45,169.05,133.1h-6.79v19.35h-9.57V105.78h17.59c12.81,0,18.29,5.09,18.29,13.46,0,6.69-3.55,11-10,12.86l14.51,20.35Zm-12.65-27c6.25,0,9.64-1.47,9.64-6s-3.39-5.9-9.64-5.9h-7V125.4Z"/><path d="M200.7,105.78h35.8v7.7H210.34v11.11h24.31v7.71H210.34v12.45H236.5v7.7H200.7Z"/><path d="M242.61,139.26l9.57-2.07c.69,5.55,4.93,8.7,11.18,8.7,5.4,0,8.87-2.34,8.87-6.29,0-3.22-2.77-5.23-10.72-8-11.26-3.82-15.28-7.37-15.28-14.13,0-7.57,6.72-12.72,16.75-12.72,7.25,0,13,2.87,16.35,8.5l-8,4.28a9.57,9.57,0,0,0-8.64-5.35c-3.86,0-6.79,2.21-6.79,5.09,0,3.08,2.62,4.82,10.72,7.56,11.5,3.82,15.28,7.37,15.28,14,0,8.7-7.64,14.46-18.67,14.46C252.48,153.32,244.15,147.76,242.61,139.26Z"/><path d="M285.68,139.26l9.56-2.07c.7,5.55,4.94,8.7,11.19,8.7,5.4,0,8.87-2.34,8.87-6.29,0-3.22-2.78-5.23-10.72-8-11.27-3.82-15.28-7.37-15.28-14.13,0-7.57,6.71-12.72,16.74-12.72,7.26,0,13,2.87,16.36,8.5l-8,4.28a9.59,9.59,0,0,0-8.65-5.35c-3.85,0-6.79,2.21-6.79,5.09,0,3.08,2.63,4.82,10.73,7.56,11.49,3.82,15.27,7.37,15.27,14,0,8.7-7.63,14.46-18.67,14.46C295.55,153.32,287.22,147.76,285.68,139.26Z"/><path d="M219.2,171.45v46.67h-9.64V183.23L196.21,214h-9.33l-13.35-30.81v34.89h-9.65V171.45h13.81l13.81,32.88,13.89-32.88Z"/><path d="M232.81,171.45H268.6v7.7H242.45v11.12h24.3V198h-24.3v12.45H268.6v7.7H232.81Z"/></g></g></svg>