<svg xmlns="http://www.w3.org/2000/svg" viewBox="0 0 435.26 389.64"><defs><style>.cls-1{fill:#85b3ff;}.cls-1,.cls-2{stroke:#000;stroke-miterlimit:10;stroke-width:2px;}.cls-2{fill:#e01e77;}</style></defs><g id="Livello_2" data-name="Livello 2"><g id="Livello_1-2" data-name="Livello 1"><ellipse cx="217.63" cy="214.03" rx="216.63" ry="175.61"/><ellipse class="cls-1" cx="217.63" cy="190.17" rx="216.63" ry="175.61"/><ellipse cx="217.63" cy="168.98" rx="175.85" ry="142.55"/><ellipse class="cls-2" cx="217.63" cy="143.55" rx="175.85" ry="142.55"/><path d="M107.54,82.34h17.59c12,0,18.29,4.56,18.29,13.46s-6.41,13.87-18.29,13.87h-8V129h-9.57ZM124.13,102c6.79,0,9.64-1.8,9.64-6S131,90,124.13,90h-7V102Z"/><path d="M181.93,129l-12.88-19.35h-6.79V129h-9.57V82.34h17.59c12.81,0,18.29,5.09,18.29,13.46,0,6.7-3.55,11-10,12.86L193.12,129ZM169.28,102c6.25,0,9.64-1.47,9.64-6s-3.39-5.9-9.64-5.9h-7V102Z"/><path d="M200.7,82.34h35.8V90H210.34v11.12h24.31v7.7H210.34v12.45H236.5V129H200.7Z"/><path d="M242.61,115.83l9.57-2.08c.69,5.56,4.93,8.7,11.18,8.7,5.4,0,8.87-2.34,8.87-6.29,0-3.22-2.77-5.22-10.72-8-11.26-3.82-15.28-7.37-15.28-14.13,0-7.57,6.72-12.72,16.75-12.72,7.25,0,13,2.88,16.35,8.5l-8,4.29a9.58,9.58,0,0,0-8.64-5.36c-3.86,0-6.79,2.21-6.79,5.09,0,3.08,2.62,4.82,10.72,7.57,11.5,3.82,15.28,7.37,15.28,14,0,8.71-7.64,14.47-18.67,14.47C252.48,129.89,244.15,124.33,242.61,115.83Z"/><path d="M285.68,115.83l9.56-2.08c.7,5.56,4.94,8.7,11.19,8.7,5.4,0,8.87-2.34,8.87-6.29,0-3.22-2.78-5.22-10.72-8-11.27-3.82-15.28-7.37-15.28-14.13,0-7.57,6.71-12.72,16.74-12.72,7.26,0,13,2.88,16.36,8.5l-8,4.29a9.6,9.6,0,0,0-8.65-5.36c-3.85,0-6.79,2.21-6.79,5.09,0,3.08,2.63,4.82,10.73,7.57,11.49,3.82,15.27,7.37,15.27,14,0,8.71-7.63,14.47-18.67,14.47C295.55,129.89,287.22,124.33,285.68,115.83Z"/><path d="M219.2,148v46.68h-9.64V159.8l-13.35,30.8h-9.33l-13.35-30.8v34.89h-9.65V148h13.81l13.81,32.88L205.39,148Z"/><path d="M232.81,148H268.6v7.7H242.45v11.12h24.3v7.7h-24.3V187H268.6v7.71H232.81Z"/></g></g></svg>