<svg xmlns="http://www.w3.org/2000/svg" viewBox="0 0 434.26 386.14"><defs><style>.cls-1{fill:#85b3ff;}.cls-2{fill:#e01e77;}</style></defs><g id="Livello_2" data-name="Livello 2"><g id="Livello_1-2" data-name="Livello 1"><ellipse cx="217.13" cy="210.53" rx="216.63" ry="175.61"/><ellipse class="cls-1" cx="217.13" cy="186.67" rx="216.63" ry="175.61"/><path d="M217.13,362.78C97.4,362.78,0,283.78,0,186.67S97.4,10.56,217.13,10.56s217.13,79,217.13,176.11S336.85,362.78,217.13,362.78Zm0-351.22C98,11.56,1,90.12,1,186.67S98,361.78,217.13,361.78s216.13-78.55,216.13-175.11S336.3,11.56,217.13,11.56Z"/><ellipse cx="217.13" cy="163.48" rx="175.85" ry="142.55"/><ellipse class="cls-2" cx="217.13" cy="143.05" rx="175.85" ry="142.55"/><path d="M217.13,286.11c-97.24,0-176.35-64.18-176.35-143.06S119.89,0,217.13,0,393.48,64.17,393.48,143.05,314.37,286.11,217.13,286.11ZM217.13,1C120.44,1,41.78,64.73,41.78,143.05s78.66,142.06,175.35,142.06,175.35-63.73,175.35-142.06S313.82,1,217.13,1Z"/><path d="M108.43,81.84H126c12,0,18.28,4.56,18.28,13.46s-6.4,13.87-18.28,13.87h-8v19.35h-9.56ZM125,101.46c6.79,0,9.65-1.8,9.65-6s-2.78-5.9-9.65-5.9h-7v11.92Z"/><path d="M182.82,128.52l-12.89-19.35h-6.79v19.35h-9.56V81.84h17.59c12.81,0,18.28,5.09,18.28,13.46,0,6.7-3.55,11-9.95,12.86L194,128.52Zm-12.66-27.06c6.25,0,9.65-1.47,9.65-6s-3.4-5.9-9.65-5.9h-7v11.92Z"/><path d="M201.58,81.84h35.8v7.7H211.23v11.12h24.3v7.7h-24.3v12.45h26.15v7.71h-35.8Z"/><path d="M243.49,115.33l9.57-2.08c.69,5.56,4.94,8.7,11.19,8.7,5.4,0,8.87-2.34,8.87-6.29,0-3.22-2.78-5.22-10.72-8-11.27-3.82-15.28-7.37-15.28-14.13,0-7.56,6.71-12.72,16.74-12.72,7.25,0,13,2.88,16.36,8.5l-8,4.29a9.6,9.6,0,0,0-8.65-5.36c-3.85,0-6.79,2.21-6.79,5.09,0,3.08,2.63,4.82,10.73,7.57,11.49,3.82,15.27,7.37,15.27,14,0,8.71-7.63,14.47-18.67,14.47C253.37,129.39,245,123.83,243.49,115.33Z"/><path d="M286.56,115.33l9.57-2.08c.69,5.56,4.94,8.7,11.19,8.7,5.39,0,8.87-2.34,8.87-6.29,0-3.22-2.78-5.22-10.73-8-11.26-3.82-15.27-7.37-15.27-14.13,0-7.56,6.71-12.72,16.74-12.72,7.25,0,13,2.88,16.36,8.5l-8,4.29a9.57,9.57,0,0,0-8.64-5.36c-3.86,0-6.79,2.21-6.79,5.09,0,3.08,2.62,4.82,10.72,7.57,11.5,3.82,15.28,7.37,15.28,14,0,8.71-7.64,14.47-18.67,14.47C296.44,129.39,288.1,123.83,286.56,115.33Z"/><path d="M220.08,147.51v46.68h-9.64V159.3L197.1,190.1h-9.34l-13.35-30.8v34.89h-9.64V147.51h13.81l13.81,32.88,13.89-32.88Z"/><path d="M233.69,147.51h35.8v7.7H243.33v11.12h24.31V174H243.33v12.45h26.16v7.71h-35.8Z"/></g></g></svg>