<svg xmlns="http://www.w3.org/2000/svg" viewBox="0 0 94.82 110.66"><g id="Livello_2" data-name="Livello 2"><g id="Livello_1-2" data-name="Livello 1"><path d="M72.6,91v19.71H29.21V91H40.62V81.79H0v-20L28.69,13.86H63.78V61.75H76.23v20H63.78V91Zm-32-38V33.05h-.87L23,61.22l.52.53H40.62Z"/><path d="M74.72,9.94c0-6.32,4.12-9.94,10-9.94S94.82,3.62,94.82,9.94s-4.12,10-10.09,10S74.72,16.26,74.72,9.94Zm13.14,0c0-2.48-1.21-3.62-3.13-3.62s-3.12,1.14-3.12,3.62,1.28,3.55,3.12,3.55S87.86,12.36,87.86,9.94Z"/></g></g></svg>