<svg xmlns="http://www.w3.org/2000/svg" viewBox="0 0 500.36 476.1"><defs><style>.cls-1{fill:#f15a24;}.cls-1,.cls-2,.cls-3,.cls-4{stroke:#000;stroke-miterlimit:10;}.cls-2{fill:#85b3ff;}.cls-3{fill:#e01e77;}.cls-4{fill:#ffc900;}</style></defs><g id="Livello_2" data-name="Livello 2"><g id="Livello_1-2" data-name="Livello 1"><rect class="cls-1" x="8.46" y="82.62" width="125.13" height="125.13" rx="2.33"/><circle class="cls-1" cx="71.03" cy="28.29" r="27.79"/><rect class="cls-2" x="177.67" y="78.84" width="138.94" height="138.94" rx="17.62"/><circle class="cls-2" cx="247.14" cy="28.29" r="27.79"/><rect class="cls-1" x="356.33" y="336.5" width="138.94" height="138.94" rx="17.62"/><circle class="cls-1" cx="425.8" cy="285.95" r="27.79"/><path class="cls-3" d="M71.07,346.89,1.13,463.46a4.35,4.35,0,0,0,3.73,6.59h139.4a4.36,4.36,0,0,0,3.75-6.58L78.54,346.9A4.35,4.35,0,0,0,71.07,346.89Z"/><circle class="cls-3" cx="74.56" cy="291.33" r="27.79"/><path class="cls-4" d="M422.31,89.23,352.37,205.8a4.35,4.35,0,0,0,3.73,6.59H495.5a4.35,4.35,0,0,0,3.74-6.58L429.78,89.25A4.35,4.35,0,0,0,422.31,89.23Z"/><circle class="cls-4" cx="425.8" cy="33.67" r="27.79"/><circle class="cls-4" cx="251.05" cy="291.33" r="27.79"/><path class="cls-4" d="M249.59,339.86l-69,50.13a2.47,2.47,0,0,0-.9,2.78L206,473.88a2.5,2.5,0,0,0,2.37,1.72h85.28a2.5,2.5,0,0,0,2.37-1.72l26.35-81.11a2.49,2.49,0,0,0-.9-2.78l-69-50.13A2.49,2.49,0,0,0,249.59,339.86Z"/></g></g></svg>