<svg xmlns="http://www.w3.org/2000/svg" viewBox="0 0 501.36 477.1"><defs><style>.cls-1{fill:#f15a24;}.cls-1,.cls-2,.cls-3,.cls-4{stroke:#000;stroke-miterlimit:10;stroke-width:2px;}.cls-2{fill:#85b3ff;}.cls-3{fill:#e01e77;}.cls-4{fill:#ffc900;}</style></defs><g id="Livello_2" data-name="Livello 2"><g id="Livello_1-2" data-name="Livello 1"><rect class="cls-1" x="8.96" y="83.12" width="125.13" height="125.13" rx="2.33"/><circle class="cls-1" cx="71.53" cy="28.79" r="27.79"/><rect class="cls-2" x="178.17" y="79.34" width="138.94" height="138.94" rx="17.62"/><circle class="cls-2" cx="247.64" cy="28.79" r="27.79"/><rect class="cls-1" x="356.83" y="337" width="138.94" height="138.94" rx="17.62"/><circle class="cls-1" cx="426.3" cy="286.45" r="27.79"/><path class="cls-3" d="M71.57,347.39,1.63,464a4.35,4.35,0,0,0,3.73,6.59h139.4a4.36,4.36,0,0,0,3.75-6.58L79,347.4A4.35,4.35,0,0,0,71.57,347.39Z"/><circle class="cls-3" cx="75.06" cy="291.83" r="27.79"/><path class="cls-4" d="M422.81,89.73,352.87,206.3a4.35,4.35,0,0,0,3.73,6.59H496a4.35,4.35,0,0,0,3.74-6.58L430.28,89.75A4.35,4.35,0,0,0,422.81,89.73Z"/><circle class="cls-4" cx="426.3" cy="34.17" r="27.79"/><circle class="cls-4" cx="251.55" cy="291.83" r="27.79"/><path class="cls-4" d="M250.09,340.36l-69,50.13a2.47,2.47,0,0,0-.9,2.78l26.35,81.11a2.5,2.5,0,0,0,2.37,1.72h85.28a2.5,2.5,0,0,0,2.37-1.72l26.35-81.11a2.49,2.49,0,0,0-.9-2.78l-69-50.13A2.49,2.49,0,0,0,250.09,340.36Z"/></g></g></svg>