<svg xmlns="http://www.w3.org/2000/svg" viewBox="0 0 54.03 54"><defs><style>.cls-1{fill:#fff;}</style></defs><g id="Livello_2" data-name="Livello 2"><g id="Livello_1-2" data-name="Livello 1"><path d="M53.92,28.08a12.71,12.71,0,0,0-.3-1.54,9,9,0,0,0-.77-2,4.48,4.48,0,0,0-4.24-2.42h-1l0-.48,0-.92c0-.65,0-1.27-.1-1.9A20.3,20.3,0,0,0,38.23,3.36,19.42,19.42,0,0,0,28.76.08,1.54,1.54,0,0,1,28.41,0H25.67a2.29,2.29,0,0,1-.34.07,20.18,20.18,0,0,0-12.6,5.78,20,20,0,0,0-6.15,13c-.06.63-.08,1.27-.1,1.9l0,.84,0,.43L6,22.09l-.62.05a8.18,8.18,0,0,0-1.16.14A4.76,4.76,0,0,0,.6,26a15.07,15.07,0,0,0,0,8.42,4.85,4.85,0,0,0,3.89,3.83,6,6,0,0,0,1,.08l.55,0,.47,0v.81c0,.24,0,.48,0,.72a1.1,1.1,0,0,0,1.17,1.16H14a1.09,1.09,0,0,0,1.16-1.16q0-9.68,0-19.33A1.1,1.1,0,0,0,14,19.44H8.79l0-.54A18.34,18.34,0,0,1,27,2.23l1,0c10.28.5,17,9,17.28,16.66l0,.52H40.11a1.09,1.09,0,0,0-1.18,1.14q0,9.69,0,19.39a1.08,1.08,0,0,0,1.14,1.12h5.3v2A5.37,5.37,0,0,1,40,48.54H35.28a1.09,1.09,0,0,1-1.09-.69A3.88,3.88,0,0,0,31,45.42a20.26,20.26,0,0,0-2.43-.13c-.58,0-1.2,0-1.88.06a4.3,4.3,0,0,0-4,4,4.26,4.26,0,0,0,3.52,4.47,17.34,17.34,0,0,0,2.32.13q.79,0,1.59,0h.19a4.15,4.15,0,0,0,3.83-2.48,1.18,1.18,0,0,1,1.18-.74l2.65,0c.75,0,1.51,0,2.26,0a7.46,7.46,0,0,0,7.23-6.45,28.26,28.26,0,0,0,.11-3.19c0-.49,0-1,0-1.48V38.58l.4-.08c.32-.07.63-.12.93-.17A7.57,7.57,0,0,0,50.59,38c1.53-.61,2.49-1.88,3-4,.13-.51.22-1,.31-1.57,0-.24.07-.47.11-.71V28.75C54,28.53,54,28.31,53.92,28.08ZM6.46,36,6.05,36a4.11,4.11,0,0,1-.75.07,2.24,2.24,0,0,1-2.25-1.56,12.42,12.42,0,0,1-.71-3,11.78,11.78,0,0,1,.39-4.93,2.71,2.71,0,0,1,2.13-2.19,2,2,0,0,1,.45,0H6.46ZM12.9,21.7V38.85H8.74V21.7ZM45.33,38.85H41.17V21.7h4.16Zm-15,12.9c-.55,0-1.1,0-1.65,0s-1.09,0-1.64,0a2.09,2.09,0,0,1-2.07-2.12A2.13,2.13,0,0,1,27,47.54h3.24a2.14,2.14,0,0,1,2.1,2.1A2.09,2.09,0,0,1,30.29,51.75ZM51.47,33.39a5.45,5.45,0,0,1-.41,1.15,2.4,2.4,0,0,1-2.32,1.56A4.62,4.62,0,0,1,48,36L47.63,36V24.59l.37-.1a3.37,3.37,0,0,1,.87-.12A2.19,2.19,0,0,1,51,25.83a12.18,12.18,0,0,1,.73,3A12.37,12.37,0,0,1,51.47,33.39Z"/><path class="cls-1" d="M28.65,48h1.61a1.62,1.62,0,0,1,1.61,1.6,1.6,1.6,0,0,1-1.59,1.61q-1.63,0-3.27,0a1.59,1.59,0,0,1-1.58-1.62A1.63,1.63,0,0,1,27.05,48Z"/></g></g></svg>