<svg xmlns="http://www.w3.org/2000/svg" viewBox="0 0 391.83 309.23"><defs><style>.cls-1{fill:#fff;stroke:#000;stroke-miterlimit:10;stroke-width:2px;}</style></defs><g id="Livello_2" data-name="Livello 2"><g id="Livello_1-2" data-name="Livello 1"><path d="M210.9,254h76.74c18.88,0,36.19-10.63,36.19-29.51V39.2A34.2,34.2,0,0,0,289.64,5L34.2,8A34.2,34.2,0,0,0,0,42.2V227.49a34.2,34.2,0,0,0,34.2,34.19h88.43a13.66,13.66,0,0,1,11.75,20.63L121.93,304a3.47,3.47,0,0,0,4.29,4.94l12.23-5C151.28,298.89,197.1,254,210.9,254Z"/><path class="cls-1" d="M279.9,254.68h76.74a34.19,34.19,0,0,0,34.19-34.19V35.2A34.2,34.2,0,0,0,356.64,1H48.2A34.2,34.2,0,0,0,14,35.2V220.49a34.2,34.2,0,0,0,34.2,34.19h88.43a13.66,13.66,0,0,1,11.75,20.63L135.93,297a3.47,3.47,0,0,0,4.29,4.94l99.38-39.57A109.05,109.05,0,0,1,279.9,254.68Z"/><path d="M60.36,145.45l.83-.21A10.1,10.1,0,0,1,73,151c3.71,8.91,11.75,13.81,22.52,13.81,11.84,0,19.46-5.92,19.46-15.91,0-8.13-6.09-13.2-23.53-20.14C66.74,119.1,57.94,110.13,57.94,93c0-19.13,14.73-32.16,36.73-32.16,11.56,0,21.34,3.84,28.67,11.4a10.21,10.21,0,0,1-2,15.78h0a10.09,10.09,0,0,1-12.79-1.7A19.18,19.18,0,0,0,94,79.66c-8.46,0-14.89,5.59-14.89,12.87,0,7.79,5.75,12.19,23.52,19.13,25.22,9.64,33.52,18.61,33.52,35.37,0,22-16.76,36.55-41,36.55-19,0-34.5-9.11-41.6-23.89A10.2,10.2,0,0,1,60.36,145.45Z"/><path d="M153.05,138.73V73.64a10.21,10.21,0,0,1,10.21-10.22H164A10.21,10.21,0,0,1,174.2,73.64v62.72c0,20,6.43,27.09,23.87,27.09s24-7.29,24-27.09V73.64a10.21,10.21,0,0,1,10.22-10.22H233a10.22,10.22,0,0,1,10.22,10.22v64.25c0,30.63-15.41,46-45.19,46C168.45,183.92,153.05,168.86,153.05,138.73Z"/><path d="M270.66,67.88a4.46,4.46,0,0,1,4.46-4.46h36.66c23.53,0,37.41,11.17,37.41,29.79,0,11-4.74,19.8-13,24.54,12.69,4.57,19.29,14.39,19.29,29.11,0,21.66-14.39,34.53-38.42,34.53H275.12a4.46,4.46,0,0,1-4.46-4.47Zm41.12,42.42c10.67,0,16.25-4.57,16.25-13.37,0-9-5.92-14.05-16.25-14.05H296.27a4.46,4.46,0,0,0-4.46,4.46v18.5a4.46,4.46,0,0,0,4.46,4.46Zm3.56,51.62c11.85,0,19-6.43,19-16.75,0-10-6.6-15.41-19-15.41H296.27a4.47,4.47,0,0,0-4.46,4.47v23.23a4.46,4.46,0,0,0,4.46,4.46Z"/></g></g></svg>