<svg xmlns="http://www.w3.org/2000/svg" viewBox="0 0 388.33 311.73"><defs><style>.cls-1{fill:#fff;stroke:#000;stroke-miterlimit:10;}</style></defs><g id="Livello_2" data-name="Livello 2"><g id="Livello_1-2" data-name="Livello 1"><path d="M277.4,264.18h76.74A34.19,34.19,0,0,0,388.33,230V44.7a34.2,34.2,0,0,0-34.19-34.2H45.7A34.2,34.2,0,0,0,11.5,44.7V230a34.2,34.2,0,0,0,34.2,34.19h88.43a13.66,13.66,0,0,1,11.75,20.63l-12.45,21.73a3.47,3.47,0,0,0,4.29,4.94l99.38-39.57A109.05,109.05,0,0,1,277.4,264.18Z"/><path class="cls-1" d="M266.4,254.18h76.74A34.19,34.19,0,0,0,377.33,220V34.7A34.2,34.2,0,0,0,343.14.5H34.7A34.2,34.2,0,0,0,.5,34.7V220a34.2,34.2,0,0,0,34.2,34.19h88.43a13.66,13.66,0,0,1,11.75,20.63l-12.45,21.73a3.47,3.47,0,0,0,4.29,4.94l99.38-39.57A109.05,109.05,0,0,1,266.4,254.18Z"/><path d="M46.86,145l.83-.21a10.1,10.1,0,0,1,11.81,5.75C63.21,159.4,71.25,164.3,82,164.3c11.84,0,19.46-5.92,19.46-15.91,0-8.13-6.09-13.2-23.53-20.14-24.71-9.65-33.51-18.62-33.51-35.71,0-19.13,14.73-32.16,36.73-32.16,11.56,0,21.34,3.84,28.67,11.4a10.21,10.21,0,0,1-2,15.78h0A10.09,10.09,0,0,1,95,85.86a19.18,19.18,0,0,0-14.54-6.7C72,79.16,65.6,84.75,65.6,92c0,7.79,5.75,12.19,23.52,19.13,25.22,9.64,33.52,18.61,33.52,35.37,0,22-16.76,36.55-41,36.55-19,0-34.5-9.11-41.6-23.89A10.2,10.2,0,0,1,46.86,145Z"/><path d="M139.55,138.23V73.14a10.21,10.21,0,0,1,10.21-10.22h.73A10.21,10.21,0,0,1,160.7,73.14v62.72c0,20,6.43,27.09,23.87,27.09s24-7.29,24-27.09V73.14a10.21,10.21,0,0,1,10.22-10.22h.72a10.22,10.22,0,0,1,10.22,10.22v64.25c0,30.63-15.41,46-45.19,46C155,183.42,139.55,168.36,139.55,138.23Z"/><path d="M257.16,67.38a4.46,4.46,0,0,1,4.46-4.46h36.66c23.53,0,37.41,11.17,37.41,29.79,0,11-4.74,19.8-13,24.54,12.69,4.57,19.29,14.39,19.29,29.11,0,21.66-14.39,34.53-38.42,34.53H261.62a4.46,4.46,0,0,1-4.46-4.47Zm41.12,42.42c10.67,0,16.25-4.57,16.25-13.37,0-9-5.92-14.05-16.25-14.05H282.77a4.46,4.46,0,0,0-4.46,4.46v18.5a4.46,4.46,0,0,0,4.46,4.46Zm3.56,51.62c11.85,0,19-6.43,19-16.75,0-10-6.6-15.41-19-15.41H282.77a4.47,4.47,0,0,0-4.46,4.47V157a4.46,4.46,0,0,0,4.46,4.46Z"/></g></g></svg>