<svg xmlns="http://www.w3.org/2000/svg" viewBox="0 0 434.5 562.5"><defs><style>.cls-1{fill:#ffc900;}</style></defs><g id="Livello_2" data-name="Livello 2"><g id="Livello_1-2" data-name="Livello 1"><ellipse class="cls-1" cx="171.99" cy="353" rx="171.99" ry="209.5"/><path d="M173,562.5h-2C171,447.53,94.29,354,0,354v-2c94.29,0,171-93.53,171-208.5h2c0,115,76.71,208.5,171,208.5v2C249.7,354,173,447.53,173,562.5ZM16.93,353C98.25,362.66,163.26,441.12,172,539.79c8.74-98.67,73.74-177.13,155.07-186.79C245.73,343.34,180.73,264.88,172,166.21,163.26,264.88,98.25,343.34,16.93,353Z"/><ellipse class="cls-1" cx="324.69" cy="133.75" rx="109.81" ry="133.75"/><path d="M325.69,267.5h-2c0-73.2-48.8-132.75-108.8-132.75v-2c60,0,108.8-59.55,108.8-132.75h2c0,73.2,48.81,132.75,108.81,132.75v2C374.5,134.75,325.69,194.3,325.69,267.5ZM228.43,133.75C278.26,141.17,318,189,324.69,249.36,331.4,189,371.13,141.17,421,133.75c-49.83-7.42-89.56-55.23-96.27-115.61C318,78.52,278.26,126.33,228.43,133.75Z"/></g></g></svg>