<svg xmlns="http://www.w3.org/2000/svg" viewBox="0 0 312 278.09"><g id="Livello_2" data-name="Livello 2"><g id="Livello_1-2" data-name="Livello 1"><path d="M310.81,49.68a2.79,2.79,0,0,0,.36-4.26,80.59,80.59,0,0,0-8.6-7.91c-16.63-12.21-37.27-12.27-54.41-.32q-39.6,27.63-79.1,55.38c-8.14,5.71-16.29,11.4-24.53,17.17a2.8,2.8,0,0,1-3.2,0q-17.61-12.36-35.09-24.58a2.73,2.73,0,0,1-.84-3.5v0a55.12,55.12,0,0,0,5.4-35.85C106.51,21.71,86,2.47,62.1.26,36.31-2.13,12.62,12.18,3.87,35.68a80.24,80.24,0,0,0-2.74,9.94A44.81,44.81,0,0,0,0,55.61H0A44.83,44.83,0,0,0,1.36,66.54,83.56,83.56,0,0,0,5.1,78.83c9.55,22.34,34.19,35.92,58.21,32.17,5.27-.82,10.34-2.89,15.53-4.22a4.81,4.81,0,0,1,3.52.34c14.9,10.31,29.73,20.74,44.58,31.15a10.85,10.85,0,0,1,.87.8c-.82.64-1.56,1.28-2.36,1.83-14.09,9.88-28.21,19.72-42.25,29.68a4.67,4.67,0,0,1-5.22.48c-31.47-13.14-65.74,3-75.66,35.64-.63,2.07-1.09,4.2-1.54,6.34A37.77,37.77,0,0,0,0,220.61v1.56a67,67,0,0,0,.65,8.49v0a55.83,55.83,0,1,0,108.79-24.05c-1.06-3.55-2.56-7-4-10.52a2.76,2.76,0,0,1,1-3.3l34.9-24.44a2.8,2.8,0,0,1,3.18,0l2.28,1.59q50.69,35.49,101.39,70.94c16.4,11.41,33.54,11.86,50.89,2.11a39.39,39.39,0,0,0,12.26-10.74,2.77,2.77,0,0,0-.65-3.93l-124.23-87a2.79,2.79,0,0,1,0-4.55ZM57.39,84.77a28.85,28.85,0,0,1-3.81-57.56C70,25.82,83.72,37.67,84.85,54.51A28.62,28.62,0,0,1,57.39,84.77Zm1,166.15c-16.59,1.33-30.3-10.65-31.2-28a28.49,28.49,0,0,1,27.52-29.57c15.45-1.21,29,11.17,30.21,27.57C86,235.86,73.78,249.69,58.4,250.92Z"/></g></g></svg>