<svg xmlns="http://www.w3.org/2000/svg" viewBox="0 0 423 210"><defs><style>.cls-1{fill:#fff;}.cls-1,.cls-2,.cls-3,.cls-4{stroke:#000;stroke-miterlimit:10;stroke-width:2px;}.cls-2{fill:#f15a24;}.cls-3{fill:#ffc900;}.cls-4{fill:#85b3ff;}</style></defs><g id="Livello_2" data-name="Livello 2"><g id="Livello_1-2" data-name="Livello 1"><rect y="12" width="410" height="198" rx="25.3"/><rect class="cls-1" x="12" y="1" width="410" height="198" rx="25.3"/><rect class="cls-2" x="29" y="20" width="43" height="43" rx="5.77"/><rect class="cls-2" x="92" y="20" width="43" height="43" rx="5.77"/><rect class="cls-2" x="155" y="20" width="43" height="43" rx="5.77"/><rect class="cls-2" x="220" y="20" width="43" height="43" rx="5.77"/><rect class="cls-2" x="280" y="20" width="43" height="43" rx="5.77"/><rect class="cls-3" x="29" y="76" width="78" height="43" rx="5.77"/><rect class="cls-2" x="125" y="76" width="43" height="43" rx="5.77"/><rect class="cls-2" x="186" y="76" width="43" height="43" rx="5.77"/><rect class="cls-2" x="247" y="76" width="43" height="43" rx="5.77"/><rect class="cls-2" x="308" y="76" width="43" height="43" rx="5.77"/><path class="cls-4" d="M364,20H343.77A5.77,5.77,0,0,0,338,25.77V57.23A5.77,5.77,0,0,0,343.77,63h14.46A5.77,5.77,0,0,1,364,68.77v44.46a5.77,5.77,0,0,0,5.77,5.77h31.46a5.77,5.77,0,0,0,5.77-5.77V25.77A5.77,5.77,0,0,0,401.23,20Z"/><rect class="cls-4" x="107" y="132" width="220" height="43" rx="5.77"/><rect class="cls-3" x="341" y="132" width="66" height="43" rx="5.77"/><rect class="cls-3" x="27" y="132" width="66" height="43" rx="5.77"/></g></g></svg>