<svg xmlns="http://www.w3.org/2000/svg" viewBox="0 0 421.5 209.5"><defs><style>.cls-1{fill:#fff;}.cls-1,.cls-2,.cls-3,.cls-4{stroke:#000;stroke-miterlimit:10;}.cls-2{fill:#f15a24;}.cls-3{fill:#ffc900;}.cls-4{fill:#85b3ff;}</style></defs><g id="Livello_2" data-name="Livello 2"><g id="Livello_1-2" data-name="Livello 1"><rect x="11.5" y="11.5" width="410" height="198" rx="25.3"/><rect class="cls-1" x="0.5" y="0.5" width="410" height="198" rx="25.3"/><rect class="cls-2" x="17.5" y="19.5" width="43" height="43" rx="5.77"/><rect class="cls-2" x="80.5" y="19.5" width="43" height="43" rx="5.77"/><rect class="cls-2" x="143.5" y="19.5" width="43" height="43" rx="5.77"/><rect class="cls-2" x="208.5" y="19.5" width="43" height="43" rx="5.77"/><rect class="cls-2" x="268.5" y="19.5" width="43" height="43" rx="5.77"/><rect class="cls-3" x="17.5" y="75.5" width="78" height="43" rx="5.77"/><rect class="cls-2" x="113.5" y="75.5" width="43" height="43" rx="5.77"/><rect class="cls-2" x="174.5" y="75.5" width="43" height="43" rx="5.77"/><rect class="cls-2" x="235.5" y="75.5" width="43" height="43" rx="5.77"/><rect class="cls-2" x="296.5" y="75.5" width="43" height="43" rx="5.77"/><path class="cls-4" d="M352.5,19.5H332.27a5.77,5.77,0,0,0-5.77,5.77V56.73a5.77,5.77,0,0,0,5.77,5.77h14.46a5.77,5.77,0,0,1,5.77,5.77v44.46a5.77,5.77,0,0,0,5.77,5.77h31.46a5.77,5.77,0,0,0,5.77-5.77V25.27a5.77,5.77,0,0,0-5.77-5.77Z"/><rect class="cls-4" x="95.5" y="131.5" width="220" height="43" rx="5.77"/><rect class="cls-3" x="329.5" y="131.5" width="66" height="43" rx="5.77"/><rect class="cls-3" x="15.5" y="131.5" width="66" height="43" rx="5.77"/></g></g></svg>