<svg xmlns="http://www.w3.org/2000/svg" viewBox="0 0 424 212"><defs><style>.cls-1{fill:#fff;}.cls-1,.cls-2,.cls-3,.cls-4{stroke:#000;stroke-miterlimit:10;stroke-width:2px;}.cls-2{fill:#f15a24;}.cls-3{fill:#ffc900;}.cls-4{fill:#85b3ff;}</style></defs><g id="Livello_2" data-name="Livello 2"><g id="Livello_1-2" data-name="Livello 1"><rect x="14" y="14" width="410" height="198" rx="25.3"/><rect class="cls-1" x="1" y="1" width="410" height="198" rx="25.3"/><rect class="cls-2" x="18" y="20" width="43" height="43" rx="5.77"/><rect class="cls-2" x="81" y="20" width="43" height="43" rx="5.77"/><rect class="cls-2" x="144" y="20" width="43" height="43" rx="5.77"/><rect class="cls-2" x="209" y="20" width="43" height="43" rx="5.77"/><rect class="cls-2" x="269" y="20" width="43" height="43" rx="5.77"/><rect class="cls-3" x="18" y="76" width="78" height="43" rx="5.77"/><rect class="cls-2" x="114" y="76" width="43" height="43" rx="5.77"/><rect class="cls-2" x="175" y="76" width="43" height="43" rx="5.77"/><rect class="cls-2" x="236" y="76" width="43" height="43" rx="5.77"/><rect class="cls-2" x="297" y="76" width="43" height="43" rx="5.77"/><path class="cls-4" d="M353,20H332.77A5.77,5.77,0,0,0,327,25.77V57.23A5.77,5.77,0,0,0,332.77,63h14.46A5.77,5.77,0,0,1,353,68.77v44.46a5.77,5.77,0,0,0,5.77,5.77h31.46a5.77,5.77,0,0,0,5.77-5.77V25.77A5.77,5.77,0,0,0,390.23,20Z"/><rect class="cls-4" x="96" y="132" width="220" height="43" rx="5.77"/><rect class="cls-3" x="330" y="132" width="66" height="43" rx="5.77"/><rect class="cls-3" x="16" y="132" width="66" height="43" rx="5.77"/></g></g></svg>