<svg xmlns="http://www.w3.org/2000/svg" viewBox="0 0 388.83 267.68"><defs><style>.cls-1{fill:#85b3ff;}.cls-1,.cls-2,.cls-3,.cls-4,.cls-5{stroke:#000;stroke-miterlimit:10;stroke-width:2px;}.cls-2,.cls-6{fill:#f15a24;}.cls-3{fill:#ffc900;}.cls-4{fill:#e01e77;}.cls-5{fill:#fff;}</style></defs><g id="Livello_2" data-name="Livello 2"><g id="Livello_1-2" data-name="Livello 1"><rect x="12" y="14" width="376.83" height="253.68" rx="34.2"/><rect class="cls-1" x="1" y="1" width="376.83" height="253.68" rx="34.2"/><circle class="cls-2" cx="37.45" cy="15" r="8"/><circle class="cls-3" cx="60.45" cy="15" r="8"/><circle class="cls-4" cx="83.45" cy="15" r="8"/><rect class="cls-5" x="15.45" y="28" width="347" height="213" rx="22.97"/><rect x="270.69" y="129.68" width="26.76" height="14" rx="7"/><rect x="63.69" y="161.68" width="42.76" height="14" rx="7"/><rect x="141.28" y="129.94" width="120.5" height="14.06" rx="7"/><rect x="283.16" y="98.59" width="14.29" height="14" rx="7" transform="translate(580.61 211.18) rotate(-180)"/><rect x="141.28" y="98.72" width="64.26" height="14.06" rx="7" transform="translate(346.82 211.5) rotate(-180)"/><rect x="217.34" y="98.72" width="58.23" height="14.06" rx="7" transform="translate(492.9 211.5) rotate(-180)"/><rect x="139.8" y="69.51" width="64.87" height="14.19" rx="7" transform="translate(344.47 153.21) rotate(-180)"/><rect x="216.58" y="67.71" width="86.87" height="14" rx="7" transform="translate(520.03 149.41) rotate(-180)"/><rect x="258.3" y="161" width="39.15" height="14.7" rx="7.09"/><rect x="205.16" y="190.59" width="92.29" height="14" rx="7" transform="translate(502.61 395.18) rotate(-180)"/><rect x="63.28" y="190.72" width="64.26" height="14.06" rx="7" transform="translate(190.82 395.5) rotate(-180)"/><rect x="139.34" y="190.72" width="58.23" height="14.06" rx="7" transform="translate(336.9 395.5) rotate(-180)"/><rect x="116.04" y="160.42" width="14" height="14" rx="7" transform="translate(246.09 334.83) rotate(-180)"/><rect x="138.58" y="161.51" width="109.73" height="14.19" rx="7" transform="translate(386.89 337.21) rotate(-180)"/><path class="cls-6" d="M116.64,71.27l1.79,12.88A2.55,2.55,0,0,1,116.16,87l-.78.07a2.53,2.53,0,0,1-2.64-1.66l-3.21-8.85a2.54,2.54,0,0,0-2.16-1.67l-.45,0c-.75,0-1.49-.06-2.2-.06H97.87a2.54,2.54,0,0,0-2.52,2.5c0,.48,0,1,0,1.64,0,2.11,0,4.61,0,7.51V108c0,4.37,0,8.21.11,11.54,0,1.89.06,3.44.08,4.65a2.55,2.55,0,0,0,2.19,2.48l4.73.66a2.53,2.53,0,0,1,2.18,2.68h0a2.54,2.54,0,0,1-2.53,2.37H77.56A2.55,2.55,0,0,1,75,130h0a2.54,2.54,0,0,1,2.18-2.69l4.63-.65A2.54,2.54,0,0,0,84,124.22q0-1.81.09-4.65c.07-3.33.11-7.17.11-11.54V79c0-.61,0-1.15,0-1.63a2.55,2.55,0,0,0-2.53-2.51h-7c-.72,0-1.45,0-2.2.06l-.43,0a2.51,2.51,0,0,0-2.17,1.7l-3.12,9A2.55,2.55,0,0,1,64,87.27l-.81-.1A2.54,2.54,0,0,1,61,84.34l1.64-13a2.54,2.54,0,0,1,2.62-2.22l.42,0,3.06.1,3.17.11c1,0,2,0,3,0H104.5c.86,0,1.81,0,2.85,0l3.17-.11,3.11-.1.4,0A2.54,2.54,0,0,1,116.64,71.27Z"/></g></g></svg>