<svg xmlns="http://www.w3.org/2000/svg" viewBox="0 0 445.77 451.21"><defs><style>.cls-1{fill:#ffc900;}.cls-1,.cls-2,.cls-3{stroke:#000;stroke-miterlimit:10;}.cls-2{fill:#e01e77;}.cls-3{fill:none;}</style></defs><g id="Livello_2" data-name="Livello 2"><g id="Livello_1-2" data-name="Livello 1"><path class="cls-1" d="M357.45,70.75,370,161.05l-27.2,2.71-22.3-61.46a64.21,64.21,0,0,0-10.61-1.36q-5.72-.27-11.15-.27H266.06q-8.16,0-14.68.54,0,4.37-.28,20.4t-.27,38.08V268.75q0,33.18.55,58.47t.54,34.55l46.78,6.52-1.63,23.94h-148l-1.63-23.94,46.24-6.52q0-9.25.54-34.55t.54-58.47V121.61q0-16-.54-20.4-6-.54-13.87-.54h-34q-5.43,0-11.15.27a64.21,64.21,0,0,0-10.61,1.36l-21.76,62.55-27.19-3.26L87.1,70.75c4.35.36,9,.64,13.87.81s10.06.37,15.5.55l16.05.54c5.25.19,10.25.27,15,.27H297.61c4.35,0,9.17-.08,14.42-.27l16-.54c5.44-.18,10.69-.36,15.78-.55S353.45,71.11,357.45,70.75Z"/><rect class="cls-2" x="385.43" y="1.86" width="59.85" height="59.85" rx="7.07"/><rect class="cls-2" x="0.5" y="389.51" width="59.85" height="59.85" rx="7.07"/><rect class="cls-2" x="385.43" y="390.87" width="59.85" height="59.85" rx="7.07"/><line class="cls-3" x1="30.42" y1="57.13" x2="30.42" y2="389.51"/><line class="cls-3" x1="415.34" y1="62.13" x2="415.35" y2="390.87"/><line class="cls-3" x1="60.35" y1="30.42" x2="385.43" y2="30.42"/><line class="cls-3" x1="385.43" y1="420.79" x2="60.35" y2="420.79"/><rect class="cls-2" x="0.5" y="0.5" width="59.85" height="59.85" rx="7.07"/></g></g></svg>