<svg xmlns="http://www.w3.org/2000/svg" viewBox="0 0 387.33 265.18"><defs><style>.cls-1{fill:#85b3ff;}.cls-1,.cls-2,.cls-3,.cls-4,.cls-5{stroke:#000;stroke-miterlimit:10;}.cls-2,.cls-6{fill:#f15a24;}.cls-3{fill:#ffc900;}.cls-4{fill:#e01e77;}.cls-5{fill:#fff;}</style></defs><g id="Livello_2" data-name="Livello 2"><g id="Livello_1-2" data-name="Livello 1"><rect x="10.5" y="11.5" width="376.83" height="253.68" rx="34.2"/><rect class="cls-1" x="0.5" y="0.5" width="376.83" height="253.68" rx="34.2"/><circle class="cls-2" cx="36.95" cy="14.5" r="8"/><circle class="cls-3" cx="59.95" cy="14.5" r="8"/><circle class="cls-4" cx="82.95" cy="14.5" r="8"/><rect class="cls-5" x="14.95" y="27.5" width="347" height="213" rx="22.97"/><rect x="270.19" y="129.18" width="26.76" height="14" rx="7"/><rect x="63.19" y="161.18" width="42.76" height="14" rx="7"/><rect x="140.78" y="129.44" width="120.5" height="14.06" rx="7"/><rect x="282.66" y="98.09" width="14.29" height="14" rx="7" transform="translate(579.61 210.18) rotate(-180)"/><rect x="140.78" y="98.22" width="64.26" height="14.06" rx="7" transform="translate(345.82 210.5) rotate(-180)"/><rect x="216.84" y="98.22" width="58.23" height="14.06" rx="7" transform="translate(491.9 210.5) rotate(-180)"/><rect x="139.3" y="69.01" width="64.87" height="14.19" rx="7" transform="translate(343.47 152.21) rotate(-180)"/><rect x="216.08" y="67.21" width="86.87" height="14" rx="7" transform="translate(519.03 148.41) rotate(-180)"/><rect x="257.8" y="160.5" width="39.15" height="14.7" rx="7.09"/><rect x="204.66" y="190.09" width="92.29" height="14" rx="7" transform="translate(501.61 394.18) rotate(-180)"/><rect x="62.78" y="190.22" width="64.26" height="14.06" rx="7" transform="translate(189.82 394.5) rotate(-180)"/><rect x="138.84" y="190.22" width="58.23" height="14.06" rx="7" transform="translate(335.9 394.5) rotate(-180)"/><rect x="115.54" y="159.92" width="14" height="14" rx="7" transform="translate(245.09 333.83) rotate(-180)"/><rect x="138.08" y="161.01" width="109.73" height="14.19" rx="7" transform="translate(385.89 336.21) rotate(-180)"/><path class="cls-6" d="M116.14,70.77l1.79,12.88a2.55,2.55,0,0,1-2.27,2.88l-.78.07a2.53,2.53,0,0,1-2.64-1.66L109,76.09a2.54,2.54,0,0,0-2.16-1.67l-.45,0c-.75,0-1.49-.06-2.2-.06H97.37a2.54,2.54,0,0,0-2.52,2.5c0,.48,0,1,0,1.64,0,2.11,0,4.61,0,7.51v21.54c0,4.37,0,8.21.11,11.54,0,1.89.06,3.44.08,4.65a2.55,2.55,0,0,0,2.19,2.48l4.73.66a2.53,2.53,0,0,1,2.18,2.68h0a2.54,2.54,0,0,1-2.53,2.37H77.06a2.55,2.55,0,0,1-2.54-2.37h0a2.54,2.54,0,0,1,2.18-2.69l4.63-.65a2.54,2.54,0,0,0,2.18-2.48q0-1.81.09-4.65c.07-3.33.11-7.17.11-11.54v-29c0-.61,0-1.15,0-1.63a2.55,2.55,0,0,0-2.53-2.51h-7c-.72,0-1.45,0-2.2.06l-.43,0a2.51,2.51,0,0,0-2.17,1.7l-3.12,9a2.55,2.55,0,0,1-2.7,1.68l-.81-.1a2.54,2.54,0,0,1-2.22-2.83l1.64-13a2.54,2.54,0,0,1,2.62-2.22l.42,0,3.06.1,3.17.11c1,0,2,0,3,0H104c.86,0,1.81,0,2.85,0L110,68.7l3.11-.1.4,0A2.54,2.54,0,0,1,116.14,70.77Z"/></g></g></svg>