<svg xmlns="http://www.w3.org/2000/svg" viewBox="0 0 446.77 452.21"><defs><style>.cls-1{fill:#ffc900;}.cls-1,.cls-2,.cls-3,.cls-4{stroke:#000;stroke-miterlimit:10;stroke-width:2px;}.cls-2{fill:#e01e77;}.cls-3{fill:#f15a24;}.cls-4{fill:none;}</style></defs><g id="Livello_2" data-name="Livello 2"><g id="Livello_1-2" data-name="Livello 1"><path class="cls-1" d="M358,71.25l12.51,90.3-27.2,2.71L321,102.8a64.21,64.21,0,0,0-10.61-1.36q-5.72-.27-11.15-.27H266.56q-8.16,0-14.68.54,0,4.37-.28,20.4t-.27,38.08V269.25q0,33.18.55,58.47t.54,34.55l46.78,6.52-1.63,23.94h-148L148,368.79l46.24-6.52q0-9.25.54-34.55t.54-58.47V122.11q0-16-.54-20.4-6-.54-13.87-.54h-34q-5.43,0-11.15.27a64.21,64.21,0,0,0-10.61,1.36l-21.76,62.55-27.19-3.26L87.6,71.25c4.35.36,9,.64,13.87.81s10.06.37,15.5.55l16.05.54c5.25.19,10.25.27,15,.27H298.11c4.35,0,9.17-.08,14.42-.27l16-.54c5.44-.18,10.69-.36,15.78-.55S354,71.61,358,71.25Z"/><rect class="cls-2" x="1" y="1" width="59.85" height="59.85" rx="8.5"/><rect class="cls-3" x="385.93" y="2.36" width="59.85" height="59.85" rx="8.5"/><rect class="cls-3" x="1" y="390.01" width="59.85" height="59.85" rx="8.5"/><rect class="cls-2" x="385.93" y="391.37" width="59.85" height="59.85" rx="8.5"/><line class="cls-4" x1="30.92" y1="62.21" x2="30.92" y2="390.01"/><line class="cls-4" x1="415.84" y1="62.63" x2="415.85" y2="391.37"/><line class="cls-4" x1="60.85" y1="30.92" x2="385.93" y2="30.92"/><line class="cls-4" x1="385.93" y1="421.29" x2="60.85" y2="421.29"/></g></g></svg>